<svg xmlns="http://www.w3.org/2000/svg" viewBox="0 0 408 330"><defs><style>.cls-1{fill:#fff;}</style></defs><title>Asset 1</title><g id="Layer_2" data-name="Layer 2"><g id="Layer_1-2" data-name="Layer 1"><path class="cls-1" d="M408,330H0V0H408ZM145.53,123l.75.76a3.16,3.16,0,0,0,3,2.25,15.33,15.33,0,0,0,2.15,2.44c5.47,4,11,7.85,16.48,11.8a25.21,25.21,0,0,1,7.06,6.84c4.16,6.47,4.51,13,2.17,20.05-.35,1-.57,2.11-.84,3.17l-.67,1,.45.18.14-1.29a25.72,25.72,0,0,0,3-3.06,34.19,34.19,0,0,0,6-19.08,77,77,0,0,0-2.35-22.38,157.64,157.64,0,0,0-6.78-19.45c-1-2.35-2.08-4.64-3.39-7.56.22,3.58.38,6.39.55,9.2a8.19,8.19,0,0,0,.09,1.12,58.49,58.49,0,0,1,1.32,16.21c-.18,3.31-1.26,6.3-4.2,8.19a13,13,0,0,1-7.36-.77c-3.57-1.65-7.07-3.45-10.61-5.16-1.09-.52-2.22-1-3.33-1.45-.62-1.26-1.42-2.27-3-2.24l-.75-.75-.76-.75-.55-.34.63.27Zm-32.24,16.48.16,1.35.43-.18-.67-1.09-.74-1.5a14.86,14.86,0,0,0-.32-2.93c-1.9-6.15-2.22-12.56-3.29-18.84,1-1.44-.5-2.9,0-4.24.84-2.31.59-4.67.59-7a51.93,51.93,0,0,1,2-13.49,114.07,114.07,0,0,1,4.92-15,73.44,73.44,0,0,1,11.42-18.94,112.45,112.45,0,0,1,11.61-12,56.12,56.12,0,0,1,7.72-5.76,85.22,85.22,0,0,1,13.87-7c6.47-2.47,13.12-4.46,20-4.86,7.53-.44,15.08-.52,22.61,1.19A83.62,83.62,0,0,1,221.38,35a79.43,79.43,0,0,1,28.25,22.8A90.08,90.08,0,0,1,263.06,82a66.39,66.39,0,0,1,4.51,19.29c.49,7.91.78,15.89-.44,23.86a93.58,93.58,0,0,1-5.4,19.85c-.22.56-.37,1.14-.56,1.71A4,4,0,0,0,262.7,145a95.18,95.18,0,0,0,7.63-18.82A65,65,0,0,0,273,110.56c.08-2.09-.39-4.23.58-6.27a3.71,3.71,0,0,0,0-1.84c-.16-1.46-.44-2.92-.54-4.38-.11-1.62.2-3.31-.16-4.86-1-4.18-1.59-8.41-2.74-12.57a79.76,79.76,0,0,0-9.44-21.22c-2.23-3.55-5.11-6.68-7.59-10.07a61.46,61.46,0,0,0-13.63-13.17,83.86,83.86,0,0,0-27.08-13.27,90.46,90.46,0,0,0-21.48-3.35A91.72,91.72,0,0,0,175,20.92,79.58,79.58,0,0,0,154.61,27c-10,4.33-18.57,10.81-26.16,18.5a79.94,79.94,0,0,0-13.78,19.17,84.46,84.46,0,0,0-8,22.51A92,92,0,0,0,105.08,100a78.29,78.29,0,0,0,3,26.05c1.15,4.07,2.18,8.23,4.5,11.87Zm28.46,35.3-.45-2.18L140,174.75h1.73l-2.3,1.48.18.51h4.28ZM45.78,201l.58-1.3-1.46-1-1.2,1.07.55,1.29L42,202c1.4,1.12,3.11,1.31,5.62.65Zm61.46,2.27-2.63.91,1.49,1.44,2.15-.83L110,206l1.21-2.06-2.45-.67.67-1.41-1.44-1.11-1.24,1.3Zm108,0c-1.34-.18-2,.41-2.17,1.55,1,1.63,2,.11,2.6.21l2.28,1,1.06-2-2.31-.77.6-1.34-1.38-1.06L214.66,202Zm-90,15,1.88-1.58-1.46-1.33-1.51,1.23-1.52-1.32-1.26,1.4c1,1.35,1.84,2.56,3.06,4.25l.89-2.73ZM225.71,72v-3.6c-2.35.24-2.35.24-4.44,2.67l.3,2.73L225.79,72a14,14,0,0,0-.65,7.23c2.77-.55,5.1-1.55,6.45-3.86V70.05C229.31,70.12,229.31,70.12,225.71,72Zm-2.18,35.25a8.86,8.86,0,0,0-2.15.33c-4,1.66-7.9,3.39-11.85,5.08-2.75,1.17-5.51,2.31-8.34.19-1-2.33-1.29-4.12-.73-6.07,1.11-3.88,2.31-7.73,3.46-11.59.53-1.75,1-3.51,1.54-5.26l.36-.54-.29.61c-1.27,1.3-2.64,2.52-3.81,3.91-3.32,3.93-5.12,8.71-7,13.4a36.65,36.65,0,0,0-1.91,7.84A101.71,101.71,0,0,0,191.13,128c-.14,4-1.17,8.06-1.26,12.1a82.66,82.66,0,0,1-2.37,17.54c-1.49,6.14-3.59,12.06-8.11,16.78-.95,1-1.95,2-2.93,2.94,5.21-2.41,9-6.4,12.11-11,3.25-4.83,5-10.37,6.47-16,1.36-5.09,2.41-10.29,4.48-15.16,2.58-6.07,5.75-11.73,10.48-16.51a143.15,143.15,0,0,1,13.46-11.53l1.32-.18-.2-.45Zm-22.89,40.78a38.66,38.66,0,0,1-5.3,16.8,41.42,41.42,0,0,1-18.49,16.68,54,54,0,0,1-16.81,5.3c-2,.24-4,.7-6.08,1.06,4.46.6,77.22.46,79.43-.09a49,49,0,0,1-6.63-1.39c-6.26-2.17-11.82-5.41-16.18-10.62a39,39,0,0,1-7.32-14A52.36,52.36,0,0,1,200.64,148.07ZM52.85,233.33c1,.7,1.42,1.23,1.91,1.3a27,27,0,0,0,3.37.06H344.62c2,0,4,0,6,0a3.58,3.58,0,0,0,1.18-.51c-.33-.44-.46-.79-.6-.79C252,233.33,152.75,233.33,52.85,233.33Zm209.54-18.1c-2.77,1.89-5.42,2.14-8.28.13.24-1.87.48-3.79.75-5.91l-1.61-.26c-1.65,2.11-1.4,4.4-1.17,6.61a3.64,3.64,0,0,0,2.42,3,9.33,9.33,0,0,0,10.09-1.58l.41-2.31,4.47-1.72,2.13,1.33c4.32-.77,9,1.13,12.81-.91,7.49,1.33,14.41,1.52,21.35-1.16,2.88,2.38,6.15,2.56,9.61,1,1.63-3.05,1.62-3.79-.18-7.29l-1.83.52c.31,1.56.58,3,.91,4.6h-5l.42-2.86-7.62-2.75c-3.23,1-4.34,1.82-4.26,3.31l1.27,1,2.44-1.48a5,5,0,0,1,1.06.07c1.05.32,2.08.67,3.19,1a13,13,0,0,1-8.65,1.62c-.16-1.82-.37-3.67-2.12-4.79-3.58-1-6,.88-8.22,3.67-.42-1.24-.74-2.39-2.31-2.16-.49,1.14-1,2.35-1.53,3.58l-1.64-.19c-.07-1.14-.12-2.11-.19-3.22l-1.51-1.66c-3.65-.7-6.23.32-8.14,3.06-.09.12-.36.12-.19.07l-2.26-2-1.85,4.11h-8.3v2.4Zm59.48-2.8c1.36,1.55,2.71,2.64,3.82,2.72,3.73.28,7.39.13,10.49-2.31,2.35,2.14,4.61,2.07,6.94.25,2,2.4,4,1.25,6,.08,2.56,1.76,2.56,1.76,6.06,0,1.72,2,3.56,1.64,5.32.06l1.57,1.19a5.28,5.28,0,0,0,5.34-1.82v-3.88l-3.7-3.24,6.48-2.78.89-2.52-9.2,3.84c-.41-.92-.72-1.59-1.22-2.7-.62,1.24-1,2-1.28,2.56,1,2.64.67,5.09.49,7.75-1.62.8-3,1.24-4.26-.63a9.93,9.93,0,0,0,.31-1,13,13,0,0,0,.16-1.31c-.4,0-.6-.05-.64,0-.73,1.09-1.44,2.19-2.26,3.44l-2.59.12-1.41-5-1.52,4.85h-2.4c-2.78-.77-.32-2.61-1.66-3.63-1.69.94-1.13,4.24-4.19,3.7l-6.83-7.23,6.34-3,1.21-2.7L331,203.4c-.36,1.23-.64,2.16-.9,3,.95,2.21,4.41,2.25,4.4,5.2-4.92,2.16-7.85,2-11.28-.61.05-1.2.12-2.55.18-4C321.73,209.19,321.73,209.19,321.87,212.43ZM77.72,209.18c-1.4,3.81-1.63,7.07,1.55,9.78h8.32l3-4.15,6.55-1.48,3,1.24,0-.47h5.31v.37l2.3-.76,2.23.86,2.83-1.24,1.15-2.87c-.3-1-.47-1.69-.75-2.37s-.67-1.26-1.12-2.11l-1.64,1.25,1.08,3.51-1.5.83c-1.21-1.12.31-3.77-2.56-3.64-.54,1.2-.38,2.95-2.27,3.61l-.47-3.61h-1.66c-.58,1.56-.87,3.27-3.35,3.64-2.75-1.26-3-4.91-5.55-6.85L100,202l-1.14-2.1L92,203a2.42,2.42,0,0,0,.67,3.36c1.17,1.11,2.33,2.25,2.52,3.94-.47,1.21-1.46,1.27-2.49,1.28-2.62,0-5.24,0-7.86.05-.21,0-.42.21-.75.39v2l3.83,1.67c-2.74,1.65-5.16,1.06-7.66.79L79,214.26l.64-4.82Zm135.5,2.34-.91-.28a13.5,13.5,0,0,0,0-1.8,10.6,10.6,0,0,0-.42-1.57h-1.33l-1.68,3.6-1.68-.14-1.37-3.68-1.56.82-.62,2.9H201c-.54-3.48,0-7-1.11-10.4l-1.81.36v11l2.2,2.32,5-.77,0,.26h5.31v-.38l2.06.79,0-.45h5.68l1.82-.78c3,1.75,5.81,1.52,7.57-.58.23-.76.48-1.58.72-2.39-.41-1.37-.83-2.74-1.33-4.39L225,207.2c.14,1.46,1.45,2.62.38,4.09h-3.1c-1.56-1-.4-3.59-2.83-3.36-1,1-.38,3-2.35,3.6-.23-1.33-.42-2.49-.63-3.72l-1.44.11ZM180.92,96.41c-.59,1.19-1.14,2.29-1.62,3.24,0,4.44,1.27,6.67,4.47,7.95s5.34.27,8.91-3.89V98.94c-1.54-2.94-1.54-2.94-4.58-4.41h-4.45Zm16.3,114.11c-1.36-1,.16-3.42-2.29-4.33l-1.17,1,1.07,3.74-2,.69c-.09-1.39-.16-2.46-.24-3.63l-1.55-.16c-1,1.11-.56,3.05-2.56,3.76-.16-1.3-.29-2.43-.44-3.64h-1.59l-1.74,3.73h-7.68V214l3.68,1.61c-2.88,1.27-6.17,1.51-7.73.53l-1.19-2.25c.51-1.59,1.18-3,.43-4.5h-1.66c-1,3.45-2.24,7.3,1.48,9.17,4.66,2.34,9.18,1.8,11.38-3.88l2.85-1v.36h5.56c1.22.82,2.92.57,4.47-.83C196.6,212.42,196.87,211.61,197.22,210.52Zm9.09-111c-.06,2.35-.41,4.64,1.37,6.47l2.89,1.87c3.3.63,5.59-.59,7.41-3.06.34-1.09.7-2.26,1-3.27C216.18,93.89,211.88,93.19,206.31,99.5ZM142.39,288.94c2.62.33,2.63.32,3.42,2.06.69,1.54,1.35,3.09,2,4.49,1,0,1.66,0,2.28,0,.21,0,.4-.24.94-.59l-3.15-7c.68-.84,1.44-1.79,2.23-2.75l-.18-3.05-2.79-2.37c-2.87.17-5.59-.47-8.17.36v15.27h3.46ZM42.85,211.45c5.46,0,10.66-.38,16.15,0,1.72-1.68,2.41-3.7.91-6.12-.06-.1-.33-.06-.6-.11l-.41,3.62L56,207.1l-1.22,1.5-2-1.51-.86,1.28H49.28l-1.35-1.7-1.24,1.92-1.64-1.52-1.6,1.51-2.74-2.38-1.1,2.32,2.4,3.92c-2.24,2.63-5,1.95-7.8,1.94l-1.78-1.59-.38-3.5a6.33,6.33,0,0,0-1.19,5.51c1.86,3,4.77,3.26,7.6,2.54C40.92,216.73,42.93,215.1,42.85,211.45ZM168.14,119.8c-3-1.78-5.61-1.39-8.4.91l-1.48,4.16,1,2.93c2.43,1.94,4.79,3.83,8,1.91,2.79-1.64,3.24-4.16,2.8-7ZM204.8,295.66l2.95-.43v-8.32l-1.85-2.79-5.63.6v-5.59h-2.86v16.25h2.87v-7.14l2.57-1.93,2,1.44Zm-88.61-86.24,1.17,3.74c-.45,3.1-3.48,3.43-4.78,5.57l1.63,1.16a7.58,7.58,0,0,0,5.29-5.18l6.17-.91a5.62,5.62,0,0,0,7.18-1.48c-.31-1.95.77-4.28-1.39-6.22l-1.68,1.19c.28,1.12.56,2.06.73,3,.05.31-.2.67-.37,1.19l-3.12-.2-.62-3.69-2.29,1.07v2.57H120l-2-2.92Zm110.66,82.26a27.94,27.94,0,0,1-2.68,1.28c-2.16.77-4.63-.32-5-2.49-.48-3.07-.78-6.26,2.85-8.58l4.81,1.44a1.75,1.75,0,0,0-.62-2.6c-2.51-1.83-7.26-1.19-9.08,1.32a9.62,9.62,0,0,0-1.92,7c.66,5.32,5.83,8.16,10.41,5.77C226.89,294.17,227.61,293.38,226.85,291.68Zm-42.46-5.89c-4.25-2.22-7-2-9,.37s-1.77,4.72.62,8.42c2.9,1.17,5.74,1.7,8.59-.36l-.33-1.46-5.64.47L177,290.15h8.43C185,288.42,184.7,287.05,184.39,285.79Zm-26.19.61.87,2.25c-2.56,0-4.78.16-6.69,1.94l-.19,3.14,1.82,2,4.92-.63,2.95.39v-9.41c-3.37-2.51-5.39-2.59-9-.4l.4,1.42Zm85.61,9v-7.11l2.2-1.87a8.54,8.54,0,0,1,1.24.36,7.47,7.47,0,0,1,1.06.74v7.78h3c0-2.54.09-4.9,0-7.24a3.8,3.8,0,0,0-4.75-3.84,11.46,11.46,0,0,0-2.58,1.07c-.78-1.46-1.87-1.33-3.26-.66.27,3.59-.33,7.16.34,10.77Zm-7.94-31.6c1.22,1.5,2.9.81,4.63,1l2.09-2.53-1.34-1.87-4-.47,3.61-.73c.26-.53.46-1,.68-1.38s.49-.91.93-1.71c1.23,3,3,5.4,1.45,8.52l1.78.19A60.64,60.64,0,0,0,249,255.1h-1.76l-1.46,3.78L244.17,255c-2.71.45-5.54-1-7.82,1C236.19,258.63,236,261.06,235.87,263.84Zm-97.74-44.46c1.83,1,3.11,0,4.3-.81a8.36,8.36,0,0,0,3.5-4.26c1.07-3-.17-5.77-3.61-8-3.7,1.27-3.92,1.7-3.32,6.83.82.29,1.81.63,2.78,1,.45.18.87.43,1.8.9L138,217.65ZM234.07,213l4.76,2-5.4,2.6a4.78,4.78,0,0,0-.13,1.13,3.73,3.73,0,0,0,.42,1c6.21-.41,8.76-4.65,6.6-11.31l-2.44-2.12C234,207.5,233.82,207.72,234.07,213Zm-76.51,0,4.86,1.93-5.71,3,.36,1.74c4.65-.27,6.62-2.18,7.93-7.63l-1.12-3.74c-.44-.37-1.09-1-1.77-1.5a5.5,5.5,0,0,0-.92-.49C157.42,207.52,157.33,207.66,157.56,212.93Zm-1.09-35.69-1.72,3.46-1.29-1.83L151.22,181l-.73-2.41-2.59,2.22-2-.64-.65-2.45-1.8,3.37-.79-2.71-2.32,2.46-1.89-2.13L138,179l.77,3.41c-1.33,1.12-2.62,1.68-4.49.89l-.43-3.24c-2,2.13-2,2.51.11,5,1.89.48,4.08.55,5.2-1a4.47,4.47,0,0,1,4.87-2c.69.09,1.51,0,2.32.06,2.32.18,4.7.5,6.54-.37l2.66.46C157.15,180.93,156.78,179.47,156.47,177.24Zm7.85,110.36c.45,3.27,4.4,2.47,5.18,5.22a5.45,5.45,0,0,1-4.42-.21c-.14-.06-.41.18-.94.45l1,2.31c2.83.31,5.3.58,7.27-1.77v-3.34l-5.18-2.67a2.58,2.58,0,0,1,3.59-.49c.22.11.64-.14,1.34-.32L171,284.37C165.92,284.09,165.73,284.19,164.32,287.6Zm29.3-3.34h-4c-1.35.9-2.77,1.72-2.85,3.34.51,3.11,4.23,2.58,5.25,5-1.78,1.3-3.43-.05-5.46.09.39,1.06.69,1.88,1,2.63,3,.34,5.56.62,7.51-2l-.11-2.26c-1.22-2.49-4.28-1.62-5.13-3.84,1.49-1.57,2.88.19,4.61-.27C194.15,286.05,193.91,285.22,193.62,284.26Zm70.53,2.23,4.24.58c-.33-3-.61-3.11-5.46-2.64-3.92,3.12-4.4,5.54-1.94,9.88,2.5,1.64,5,1.84,7.41-.1V292l-4.07,1.54-1.95-3.65C263,288.62,263.53,287.66,264.15,286.49ZM246.25,79.54c-1.85.71-3.89.87-4.67,2.88-.44,1.16-2.21,1.88-1.24,3.53,4.38,1.38,4.38,1.38,8.32-.67.67-1.47,2.51-2.54,1.59-4.69ZM239.9,93.37c3.18,2.44,6.21,2.55,9.41.47L251,90.31C245.21,87.34,242.62,88,239.9,93.37ZM248,96l-5.1,2.75c1.66,2.84,4.07,3.89,6.51,4.73,3.86-1.63,3.86-1.63,4.89-3.58C253.2,97.26,250.59,97,248,96Zm-20.18,21.31c-1.56-1.89-3-3.65-5.38-4-1.17-.16-2.53-.39-3.38,1.24.3,3.15,1.73,5.71,5,6.76a4.32,4.32,0,0,0,4.32-.9C228.17,119.38,228,118.43,227.79,117.32Zm-91.06,20.5c5.1,1,8.67-.87,9.23-7.24-2.58-.12-5.16-.58-7.6,1.45C137.7,133.71,136.09,135.31,136.73,137.82Zm-13-20c4,4.38,7.85,4,11.19-.93C130.84,112.67,126.48,113.25,123.73,117.81Zm125.14-11.58c-4.46-5.21-7.09-5.53-11.58-1.53l3.54,4h4.6Zm-111,17.14c-6.63-.86-8.67.33-10,5.92,2.26.83,4.57.44,6.76.38C136.51,127.84,138.44,126.25,137.84,123.37Zm85.42-27.26-1.88,2.61v4.46c7.12-1.08,8.5-2.59,7.77-8.51C227,94.14,225.18,95.42,223.26,96.11Zm-56.62,12c2.71-5.21,1.2-8.61-4.69-10.39-1.19,2.17-.63,4.51-.63,6.73A7.92,7.92,0,0,0,166.64,108.12Zm73,6L237.68,110,235,108.14h-4.64l-.89,1.18C231.14,114.85,233.77,116.2,239.59,114.16ZM156.4,111l1.07-2.42-1-4.1c-2.67-2.48-2.78-2.52-6.31-2.13v5.24C151.64,109.51,153.34,111.27,156.4,111ZM139,111c.84,5.59,4.58,8,9.47,6.18-.44-3-1.39-5.68-4.59-6.86-1.25,0-2.49,0-3.73,0C139.84,110.35,139.53,110.68,139,111Zm-4.82-4.4c-5.05-4.34-8.53-4.25-11.19.31l2.48,2.36,3.62.79C131.36,109.51,133.17,108.59,134.19,106.59ZM170,54.4c-.63-2.44-1.49-4.57-4.38-4.9-1.44,2.29-3,4.43-1.42,7.22.82,1.4,1,3.48,3.31,3.2C169.45,58.59,169.25,56.4,170,54.4ZM228.7,295.65l2.9-.36V279.15h-2.9v16.5ZM155.75,95.82c0-3.27-1.16-6.1-3.18-7.15-1.49-.78-3.14-1.73-4.63,0C147.66,94,149.79,96,155.75,95.82Zm36.34-24.44c1.86-1.65,3.64-3.17,3.63-5.85a5.65,5.65,0,0,0-2.81-4.81c-2.53,1.25-3.39,3.36-3.83,5.75C189.68,68.19,189.78,70.18,192.09,71.38Zm-27.33,15c-1.32-.63-1.17-2.89-3.3-3.2-2.26.81-2.19,3.24-3.29,4.92,1.09,2.16.84,5.12,4.08,5.54C163.69,91.61,165.5,89.77,164.76,86.4Zm173,169.87a25.5,25.5,0,0,1,1.69,4.25,22.17,22.17,0,0,1,.06,4.25l1.64-.09c1.05-3.14,2.09-6.23,3.24-9.68l-2,.11c-.84,1.19,0,2.85-1.61,3.37l-1.43-3.55-6.41.33c.13,2.33-.35,4.43.39,6.61l1.91-.48v-4.07ZM146.26,81.51c2,4.17,3.12,4.92,6.62,4.29V80.69c-1.54-2-3.11-3.82-6.12-3.73C146,78.41,146.4,80.05,146.26,81.51Zm80.88,6c2-2.43,1.74-4.7,1.46-7.11-3.32-.27-5.3,1.29-6.63,3.86-.89,1.71-1.29,3.44.51,5Zm-28-.41c5.62-2.82,6.52-6.83,2.71-10.46-2.89,1-3.94,3.39-4.41,6.15Zm-14.45-27c3.37-5.9,2.77-8.75-2.07-10.42-2,1.78-1.93,4.15-1.76,6.76C181.66,57.77,182.15,59.7,184.65,60.07Zm43.77-.23,2.69-4.47c-.51-1.38-.92-2.5-1.47-4l-4.86,2.43c-1.06,2.7-2.15,5.09-.07,7.46ZM132.17,77.43c1.49,5.69,3.76,7.23,8.72,6.06.51-2.33-1.14-3.89-1.92-5.73C136.67,76.51,134.48,75.64,132.17,77.43ZM207.9,81c.39,1.42.69,2.56,1,3.8,2.78-1,5.37-2.08,6.18-5.07A4.44,4.44,0,0,0,213.72,75C210.42,75.63,208.6,77.7,207.9,81Zm-15.66,4.87c4.13-3.37,4.91-8.65.07-10.91-2.61,1-2.35,3.63-3.32,5.72Zm53-15c-2.73-.91-4.58.43-6.46,1.52-1,2-2.47,3.82-1.29,6.37l4.21-.89L245.2,75Zm-76.83-4.67c-.69,2.52-.77,5,1.33,7.08,1.32,1.3,2.86,2.3,5,1.42v-5C173.38,67.22,171.74,65.36,168.37,66.15Zm47.23,6.42c6.3-2,7.75-4.79,5-9.59-3.53.51-5.26,2.79-5.94,5.92Zm-3.87-26c-5.26,2.32-6.32,6.27-2.79,10.18l3.78-2.92c.18-.61.34-1.2.5-1.78s.41-1.39.62-2.13c-.44-.92-.83-1.81-1.31-2.66C212.37,46.93,212,46.75,211.73,46.54ZM147.09,63.27c3.4,3.87,3.4,3.87,6.52,3.92.1-2.67.74-5.38-1.45-7.61-.68-.35-1.32-.72-2-1s-1.33-.52-1.95-.76C147,59.62,147,59.62,147.09,63.27Zm15.22,15.46a6.3,6.3,0,0,0-.29-7.85c-1.65-.58-2.89-2.1-5-1.69v5.5l2.47,3.08Zm12.05.17c-2.92,3.19-3,3.52-2.28,8.78l2.54,2.39C178.9,84.86,178.86,83.1,174.36,78.9ZM126.59,96.53c.6,2.38,2.29,3.3,3.52,4.6,2.53.2,5,.55,6.92-1.62-.82-3-3.38-3.92-5.7-4.85a21.53,21.53,0,0,0-2.27.64C128.28,95.61,127.55,96,126.59,96.53Zm85.93-11.87c-1.39,4.92-1.24,5.61,1.37,7.47,5.31-4.12,5.7-5.56,2.53-10.34Zm24.95-26.74-3.73,1.89-1.85,3.72,1,4a7.6,7.6,0,0,0,6.31-4.42C239.15,60.3,239.15,60.3,237.47,57.92Zm-42.31,1.36c3-2.32,4.22-4.82,3.37-8.08l-3-3.36-2.74,3.78v4.14Zm19,.81c-2.76-.44-4,1.26-4.94,3.19a5.69,5.69,0,0,0,.41,6.46C214.83,67.47,215.84,65.36,214.11,60.09ZM180.82,81.52c-.32,3.11.27,5.56,3.13,7,2.48-1.92,3.5-4.36,2.54-7.21-.54-1.59-1.29-3.59-3.84-3.2Zm49.59,9.08c6,.3,8.23-1.81,7.71-7C232.53,82.94,230.18,85,230.41,90.6ZM185.2,66.53c-2.59-2.92-2.59-2.92-5.52-3.4-2.27,4.55-1.25,6.73,4.52,9.51C186.05,70.78,185,68.5,185.2,66.53Zm-40.33,7.82a5.86,5.86,0,0,0-2.11-9h-2.89C139,71,139.84,72.51,144.87,74.35ZM139,90.19c-.5,5.52,2.17,7.87,7.81,6.92.53-2.3-1.06-3.92-1.76-5.62A6.55,6.55,0,0,0,139,90.19Zm-2.4.8-2-3.81-3.83-1.76-4.1,1.68a6.39,6.39,0,0,0,4.73,5.17C133,92.05,134.83,92.84,136.64,91Zm64.9-31.81c-4,4.3-3.79,7.84.43,10.55,2.86-2.78,2.92-2.93,2.57-7.36ZM123.75,261.87c-.1-3.79.19-7.17-.24-10.66l-1.75.18-.54,3.77a3.19,3.19,0,0,0-4.16,1.82v3.43C119,263.2,121.44,260.65,123.75,261.87Zm150.14-10.64-.25,3.6-2.78.26-1.58,1.85v3.42c1.94,2.37,4.32.88,6.54,1.1V251.37Zm34.58.09v10.44l1.92-.19c.1-1.58.18-2.92.27-4.37l1.93-.75c.12,1.87.22,3.43.31,4.91.36.18.57.36.79.36a8.61,8.61,0,0,0,1.36-.2c-.31-2.26.77-4.69-1.49-6.46l-2.89-.26c-.12-1.27-.23-2.34-.34-3.48ZM69.75,256.67c-.91-1.83-2.36-2.18-3.11-1.59-1.23,1-2.33-.35-3.45.18v9.34H65.1l.37-2.93a3.33,3.33,0,0,0,4.28-2Zm138.11,5.09,2-.17c.1-1.59.18-2.93.27-4.37l1.89-.78.45,5.45,1.95-.44c.13-4.5-.16-5.74-1.67-6.5l-2.64.35c-.09-1.28-.19-2.6-.3-4.1l-2,.25Zm75.43,3c.19-1.21.31-2,.44-2.87l2.67-.21,1.6-1.88v-3.32c-.82-1.46-2.29-2.12-3.2-1.35-1.26,1.08-2.38-.74-3.34.17v9.35Zm-95.8-8.43c-1.45-1.12-1.45-1.12-6.52-.88v9.29l1.85-.12.41-3.16,2.44.38,1.82-2Zm-50.33-42.88c.35-9.77.35-9.77-1.39-12.54l-1.42,1c0,2.19-.37,4.32.1,6.24s-1.06,4.35.75,6.21Zm97.7,82.12,2.76-.23v-11a13.52,13.52,0,0,0-1.59-.16,5.8,5.8,0,0,0-1.17.29Zm19.54-11.25v11.05h3c-.27-3.79.24-7.43-.32-11.05Zm-12.71-64.09c3.58-1.45,5.22-4.19,5.72-7.74-.35-1.3-.7-2.58-1.11-4.12l-2.41.91c.39,1.25.72,2.28.83,2.64.48,4.09-3.14,4.58-4.63,6.79Zm-10.28-19.44-2.13.91c.11,4.51.2,8.52.31,12.9l2.06-.94a28,28,0,0,0,.7-4.91C232.26,206.32,231.8,203.9,231.41,200.79Zm-86.58,60.54v-4l2.07-.86.24,5.1h2.18c-.28-2.34.62-4.65-1.56-6.65l-5.21.27c0,2.08,0,3.82,0,5.56a3.58,3.58,0,0,0,.27.77,5.52,5.52,0,0,0,1,.22C144,261.76,144.24,261.58,144.83,261.33Zm1.6-40.95c5.21-3.09,6.54-5.75,4.53-11.93l-2.24.78,1,4.44a23.6,23.6,0,0,1-2.12,2.65,25.46,25.46,0,0,1-2.9,2.17ZM62.27,258.94l-.88-2-3.11-2,.67-1.48,2.54.5c-.18-1.65-1.11-2.21-2.34-2a16.13,16.13,0,0,0-3,1.13l.23,3.16L60,258.75c-.89,1.82-2,1.59-3.26,1-.12-.05-.36.18-.7.35l.55,1.52h4Zm192.27,2.65h5c-.3-2.36.65-4.67-1.45-6.56-1.47.13-3.31-.86-4.67,1.52H257a3,3,0,0,1-1.58.7,11.93,11.93,0,0,0-1.58.68C253.22,259.43,253.08,260.7,254.54,261.59Zm71.7.05c-.14-2.48.57-4.69-1.32-6.57-1.49.08-3.32-.9-4.68,1.31l3.88.39-3.55,1.07c-.66,1.85-.59,3.1.81,3.8ZM89.43,257.4c-1.45,1.68-1.45,3,.38,4.41l4.72-.21c-.27-2.42.66-4.76-1.39-6.51-3.13-.17-3.13-.17-4.41,1.4l3.33.18V257Zm171.75-2.1v6.3h2v-4.24l2.34-.93v5.16h2.17c-.11-2.35.69-4.62-1.37-6.56Zm-60-.31-2.06.12-1.27,3.79-1.85-4-1.76.4a43.44,43.44,0,0,0,1.7,4.58,4.86,4.86,0,0,1,.12,4.3c-.05.13.15.36.27.62l1.54-.09Zm93.54.09c.81,3.36,3.47,6,1.65,9.54l1.58.17c1.71-3.1,3.67-9.07,3.08-9.69h-1.31c-.46,1.18-.89,2.32-1.46,3.79l-1.58-3.81ZM64.41,206.18,67,209.47c-1.24,2.89-4.13,3.23-6.17,4.79,2.1,1.06,2.1,1.06,4.78.79,3.05-4.33,3.41-9.65.62-11Zm50.45,49-3.76-.29-1.55,1.6v3.79a4.21,4.21,0,0,0,4.59,1.39c.75-.19,1.66-.72,1.14-1.89-2.57.53-2.57.53-3.8-.81,1.39-.69,3.29.7,4.56-1.28Zm-42-.27-1.53,1.5v4a4.46,4.46,0,0,0,4.63,1.23c.76-.2,1.61-.76,1.08-1.9-2.6.56-2.6.56-3.75-.8l3.87-.38c.39-1.56.23-2.69-1.33-3.53Zm144.74,0c-.56.53-1.17,1.13-1.7,1.64l.2,4.39,4.58,1,2.23-2.34c-.1-1.34-.19-2.55-.25-3.46C221.25,254.5,219.68,255.05,217.58,255Zm-53.33,1.84v3.53c1.43,1.5,3.06,1.75,5.47,1.18l1.24-1.25v-3.93a4.85,4.85,0,0,0-5-1.13Zm63.59,0c.11,1.55.19,2.76.3,4.3l4.85,1,1.71-1.77v-3.95a5,5,0,0,0-5.21-1.09Zm-51.26-1L174.47,254l2.2-2.45c-1-.13-1.61-.41-2.07-.24-2,.78-1.56,3.19-2.52,3.94.35,2.46.62,4.4.92,6.49l1.79-.15v-4.51Zm-39.37,5.85c-.07-3.69.27-7-.23-10.47l-2,.38c.13,3.5-.12,6.8.19,10.2Zm87.26-10.31v10.44l1.83-.21V251.33Zm-128.5,0c.24,3.67-.23,7,.32,10.46l1.92-.38c-.08-3.5.26-6.82-.21-10.21Zm94.61,5.12,3,.4c-.57-2.07-1.92-2.23-3.29-1.79-1.19.39-1.75,1.36-1,2.9.64.4,1.47.9,2.27,1.45.11.07.06.37.1.78l-2.84-.44.41,1.82h3.35l1.77-2Zm101.8,3.26-.15.42-2.87-.36.43,1.77c2,.46,3.68.36,4.61-1.44.07-2.27-2-2.28-3.43-3.53l3.08.24a2.07,2.07,0,0,0-2.72-1.86c-1.44.25-2.2,1.07-1.7,2.85Zm15-2.65c-1.11-2.75-1.83-2.84-5.07-.76v4.07a2.88,2.88,0,0,0,3.51,1.28c.69-.17,1.23-.91,2.55-2l-3.58.47c-1.3-1.39-1.34-2.51.13-3.61ZM201.77,260.5c1.72,1.19,2.72,1.57,3.77,1.21.81-.28,1.62-.7,1.28-1.85l-2.66.25c-1.17-1.51-1.09-2.62.39-3.57a11.37,11.37,0,0,0,1.1.35c.4.07.81.08,1.43.13-1.76-2.73-2.31-2.75-5.31-.47ZM106,259.77c.07-1.63,2.54-2.37,1.8-4.77-1.18,0-2.39-.06-3.59,0-.32,0-.59.56-1.08,1.06l2.33.69c-.15,1.75-2.7,2.62-1.84,5,1.56-.07,3,.37,4.86-.61Zm23,.84c3.09,1.79,3.82,1.67,5.16-.7l-2.62.23c-1.34-1.42-1.25-2.54.2-3.58.36.1.71.19,1.07.27l1.46.34c-1.43-2.84-2.06-2.9-5.27-.71Zm-44.54-3.34c-2.31-2.87-2.52-2.88-5.64-.94v4.09a2.86,2.86,0,0,0,3.49,1.28c.69-.17,1.24-.9,1.86-1.38l-.23-.48-2.58.36c-1.06-1.92-1.06-1.92.09-3.62Zm70,3a2.94,2.94,0,0,0,3.56,1.46c.69-.17,1.24-.89,1.86-1.36a1.6,1.6,0,0,0-1.42-.27,11.36,11.36,0,0,1-1.61-.07c-1.13-1.36-1-2.4.36-3.45a9.9,9.9,0,0,0,1.25.37,8.65,8.65,0,0,0,1.37,0c-2-2.77-2.89-2.7-5.37.12Zm174.63-6.79-2.28,2.5,1.68,1.41v3.2c.87,1.3,1.85,1.54,3,.9.26-.15.37-.58.57-.92l-1.78-.67v-3l2.16-1C331.11,254.92,330.13,254.2,329.09,253.46ZM208,71.91c-2.59.22-2.73,2.1-3.38,3.73l1.74,2.82,2.9-4C208.8,73.45,208.47,72.79,208,71.91ZM167.58,83.22a5,5,0,0,0,1.74-4.93l-2-1.83c-1.71,1.4-1.81,3-1.39,5.25ZM143.42,105.4c-.71-1.76-2.08-2-3.27-2.55-1,.72-2.71.64-2.85,2.72l3,1.72Zm59.12-56.92,1.8,1.67A5,5,0,0,0,206,45l-1.56-1.62-1.92,2.14Zm53.39,37.64c-2.81-2-3.93-1.74-6.13,1.09,1.27,2,3.16,1.08,4.76,1.19ZM232.66,57.51c3.76-.31,4.4-1.12,3.93-4.81-2-.68-2.62,1.4-3.93,1.71ZM124.92,90.18c-3.56-.11-3.56-.11-4.08,2.23,2.93,1.78,2.93,1.78,6-.22Zm-5.77,10.17,4.21,1.46,2.83-1.64-3.35-2.54C121.61,98.42,119.86,97.92,119.15,100.35Zm69.37-56c-1.52,1.56-1,3.26-.85,5a7.65,7.65,0,0,0,1.3.88,4,4,0,0,0,1.29,0l1.13-3.72Zm35.61,6.84,2.33-2c0-1.76.53-3.48-1.56-4.17C222.24,48,222.17,48.5,224.13,51.2Zm-50.29,9.56c1.82-.62,1.84-1.92,1.53-3.1a3.27,3.27,0,0,0-3.47-2.75V59Zm-14.9,1.57a4,4,0,0,0,1.23-4.63l-2.08-1.5c-1.82,1.15-1.35,2.67-1.2,4.27Zm76.22,33.36-2.61,3.78,2.56.7,2.38-.72,1.25-2.57Zm.08-14.52V78.08c-3.54.2-3.88.56-4.45,4.78ZM163.05,64.64c-.16,3.64-.09,3.76,3.18,5l.76-2.74-1.44-2.3Zm58.15-11c0-1.61.64-3.33-1.47-4.1-1.66.69-1.8,2.21-2.34,3.65.48.81.93,1.6,1.53,2.63Zm-59.39.24v-3.5l-2.54-2.21c-1.47,1.34-1,2.71-.92,4C159.2,53.05,159.81,54.26,161.81,53.84Zm17-5.35c-1.35-.94-1.84-2.61-3.83-1.7V50.6l2.65,1.8Zm-43.9,22.16a4.78,4.78,0,0,0-4.08-.84c.08,3.41.78,4.11,4.08,4.15Zm-9.19,40.6-4.09-2c-1.11,1.17-2.86,1.57-2.09,3.84l3.57.16Zm1.23-31.87-3,.39c-.35,2,.9,2.66,2.14,3.55L128.9,83C129.29,81.14,128.12,80.51,126.92,79.38Zm30.46.15c.25-3.08-1.7-3.58-3.34-4.29l-1.92,1c.63,1.13,1.14,2.07,1.72,3.1Zm23.42-3c-.46-2.38-1.39-3.82-3.51-4.22l-.77,1.52c.57,1.79.75,3.78,3.14,4.2Zm59.85-13.09.43,2.54c3.63-.81,3.78-1,3.91-4.24l-1.7-.82ZM140.49,57.82a3.17,3.17,0,0,0,1.17,3.57c.74.59,1.79,1.51,2.94.47.61-1.88-.29-3.07-1.82-4Zm178,203.86V255l-1.79.24v6.47Zm-179.76-6.51c0,1.37,0,2.36,0,3.35s.11,2.11.18,3.27l2-.19c-.09-2.26.35-4.41-.33-6.62Zm-52,6.5V255l-1.83.19v6.49Zm64-6.5c0,1.37,0,2.36,0,3.35s.12,2.11.19,3.28l2-.21c-.09-2.26.37-4.41-.33-6.62ZM102,261.59c-.15-2.44.28-4.52-.37-6.7l-1.85.46c.13,2.24-.36,4.33.36,6.42Zm237.32-45.46-1.19,1.44,1.07,1.15,3.74-.21.63-1.29-1.7-1.23-1,1.28Zm-27.09-14.31-1.11,1.7,1.36,1.49c1-2.13,2.45.5,3.94-.74-.07-.5-.15-1.11-.25-1.91l-2.21.85Zm43.54,14.54-3.77.2v2h4.21Zm-121.19,63.5c.17,1.22.28,2,.41,2.92l2.67-.17v-2.75Zm22.85,2.79c-.16-1.22-.27-2-.4-2.92l-2.67.16v2.76Zm87.18-18.88.75.35c.84-1.33,2.43-2.33,1.62-4.66l-1.68.25C345,261.23,344.83,262.5,344.61,263.77Zm-43-62.38-1.79,1.91,1.83,1.63,1.6-1.77Zm-171.22,3.47,1.81-1.73-1.92-1.6-1.7,1.95Zm74.28,2,1.81-2.37L204.57,203l-1.37,1.77ZM119,204.75l-1.28-1.29-2.43,1.68,1.87,2.12Zm106.44-3.3L224.3,203c.38.83.62,1.37,1,2.09.89-1.09,1.38-1.68,1.91-2.34Zm122,4.44,2.41-1.93-2.41-1.72ZM140.94,252l-2.2.29.27,2,1.93-.26Zm-41,2.45,2.16-.5-.44-2-1.92.41Zm-15,0,2.17-.48-.42-2-1.92.42Zm231.45-2.21c.22.93.35,1.48.51,2.19l2-.49-.45-1.91Zm-163.54-.34-2.17.54.47,2,1.88-.47Zm247.08-48.58,1.28-2.85h-1.28ZM175.11,179l.17-.22-.27,0Zm85.49-30.72.14-.26-.22,0Zm-.75,1.49.14-.24-.22,0Z"/><path class="cls-1" d="M112.54,138c-2.32-3.64-3.35-7.8-4.5-11.87a78.29,78.29,0,0,1-3-26,92,92,0,0,1,1.54-12.84,84.46,84.46,0,0,1,8-22.51,79.94,79.94,0,0,1,13.78-19.17C136,37.83,144.61,31.35,154.61,27A79.58,79.58,0,0,1,175,20.92a91.72,91.72,0,0,1,15.86-1.36,90.46,90.46,0,0,1,21.48,3.35,83.86,83.86,0,0,1,27.08,13.27,61.46,61.46,0,0,1,13.63,13.17c2.48,3.39,5.36,6.52,7.59,10.07a79.76,79.76,0,0,1,9.44,21.22c1.15,4.16,1.77,8.39,2.74,12.57.36,1.55.05,3.24.16,4.86.1,1.46.38,2.92.54,4.38a3.71,3.71,0,0,1,0,1.84c-1,2-.5,4.18-.58,6.27a65,65,0,0,1-2.68,15.59A95.18,95.18,0,0,1,262.7,145a4,4,0,0,1-1.53,1.72c.19-.57.34-1.15.56-1.71a93.58,93.58,0,0,0,5.4-19.85c1.22-8,.93-15.95.44-23.86A66.39,66.39,0,0,0,263.06,82a90.08,90.08,0,0,0-13.43-24.19A79.43,79.43,0,0,0,221.38,35a83.62,83.62,0,0,0-17.8-5.92c-7.53-1.71-15.08-1.63-22.61-1.19-6.86.4-13.51,2.39-20,4.86a85.22,85.22,0,0,0-13.87,7,56.12,56.12,0,0,0-7.72,5.76,112.45,112.45,0,0,0-11.61,12,73.44,73.44,0,0,0-11.42,18.94,114.07,114.07,0,0,0-4.92,15,51.93,51.93,0,0,0-2,13.49c0,2.34.25,4.7-.59,7-.48,1.34,1.07,2.8,0,4.24,1.07,6.28,1.39,12.69,3.29,18.84a14.86,14.86,0,0,1,.32,2.93Z"/><path class="cls-1" d="M200.64,148.07a52.36,52.36,0,0,0,2.62,13.77,39,39,0,0,0,7.32,14c4.36,5.21,9.92,8.45,16.18,10.62a49,49,0,0,0,6.63,1.39c-2.21.55-75,.69-79.43.09,2-.36,4-.82,6.08-1.06a54,54,0,0,0,16.81-5.3,41.42,41.42,0,0,0,18.49-16.68A38.66,38.66,0,0,0,200.64,148.07Z"/><path class="cls-1" d="M205.46,90c-.51,1.75-1,3.51-1.54,5.26-1.15,3.86-2.35,7.71-3.46,11.59-.56,2-.27,3.74.73,6.07,2.83,2.12,5.59,1,8.34-.19,3.95-1.69,7.88-3.42,11.85-5.08a8.86,8.86,0,0,1,2.15-.33l-.07-.08A143.15,143.15,0,0,0,210,118.74c-4.73,4.78-7.9,10.44-10.48,16.51-2.07,4.87-3.12,10.07-4.48,15.16-1.5,5.62-3.22,11.16-6.47,16-3.09,4.57-6.9,8.56-12.11,11,1-1,2-1.94,2.93-2.94,4.52-4.72,6.62-10.64,8.11-16.78a82.66,82.66,0,0,0,2.37-17.54c.09-4,1.12-8.06,1.26-12.1a101.71,101.71,0,0,1,1.68-12.82,36.65,36.65,0,0,1,1.91-7.84c1.88-4.69,3.68-9.47,7-13.4,1.17-1.39,2.54-2.61,3.81-3.91Z"/><path class="cls-1" d="M149.23,126c1.11.48,2.24.93,3.33,1.45,3.54,1.71,7,3.51,10.61,5.16a13,13,0,0,0,7.36.77c2.94-1.89,4-4.88,4.2-8.19A58.49,58.49,0,0,0,173.41,109a8.19,8.19,0,0,1-.09-1.12c-.17-2.81-.33-5.62-.55-9.2,1.31,2.92,2.42,5.21,3.39,7.56a157.64,157.64,0,0,1,6.78,19.45,77,77,0,0,1,2.35,22.38,34.19,34.19,0,0,1-6,19.08,25.72,25.72,0,0,1-3,3.06l.08.07c.27-1.06.49-2.14.84-3.17,2.34-7,2-13.58-2.17-20.05a25.21,25.21,0,0,0-7.06-6.84c-5.48-3.95-11-7.83-16.48-11.8a15.33,15.33,0,0,1-2.15-2.44Z"/><path class="cls-1" d="M52.85,233.33c99.9,0,199.13,0,298.35,0,.14,0,.27.35.6.79a3.58,3.58,0,0,1-1.18.51c-2,0-4,0-6,0H58.13a27,27,0,0,1-3.37-.06C54.27,234.56,53.85,234,52.85,233.33Z"/><path class="cls-1" d="M262.39,215.23l-3.49-1.16v-2.4h8.3l1.85-4.11,2.26,2c-.17.05.1.05.19-.07,1.91-2.74,4.49-3.76,8.14-3.06l1.51,1.66c.07,1.11.12,2.08.19,3.22l1.64.19c.52-1.23,1-2.44,1.53-3.58,1.57-.23,1.89.92,2.31,2.16,2.25-2.79,4.64-4.66,8.22-3.67,1.75,1.12,2,3,2.12,4.79a13,13,0,0,0,8.65-1.62c-1.11-.35-2.14-.7-3.19-1a5,5,0,0,0-1.06-.07L299.12,210l-1.27-1c-.08-1.49,1-2.3,4.26-3.31l7.62,2.75-.42,2.86h5c-.33-1.65-.6-3-.91-4.6l1.83-.52c1.8,3.5,1.81,4.24.18,7.29-3.46,1.57-6.73,1.39-9.61-1-6.94,2.68-13.86,2.49-21.35,1.16-3.83,2-8.49.14-12.81.91l-2.13-1.33L265,214.94l-.41,2.31a9.33,9.33,0,0,1-10.09,1.58,3.64,3.64,0,0,1-2.42-3c-.23-2.21-.48-4.5,1.17-6.61l1.61.26c-.27,2.12-.51,4-.75,5.91C257,217.37,259.62,217.12,262.39,215.23ZM273,210.88l.21.67c1.56-.12,3.15-.15,4.69-.41.43-.07.75-.83,1.25-1.42L277,208.3Zm19.54-2.37c-1.56.79-3.05,1.15-3.63,3,2.11.05,4.16.49,5.95-1.68Z"/><path class="cls-1" d="M321.87,212.43c-.14-3.24-.14-3.24,1.56-5.44-.06,1.48-.13,2.83-.18,4,3.43,2.64,6.36,2.77,11.28.61,0-2.95-3.45-3-4.4-5.2.26-.87.54-1.8.9-3l9.07-4.14-1.21,2.7-6.34,3,6.83,7.23c3.06.54,2.5-2.76,4.19-3.7,1.34,1-1.12,2.86,1.66,3.63h2.4l1.52-4.85,1.41,5,2.59-.12c.82-1.25,1.53-2.35,2.26-3.44,0-.06.24,0,.64,0a13,13,0,0,1-.16,1.31,9.93,9.93,0,0,1-.31,1c1.24,1.87,2.64,1.43,4.26.63.18-2.66.48-5.11-.49-7.75.28-.57.66-1.32,1.28-2.56.5,1.11.81,1.78,1.22,2.7l9.2-3.84-.89,2.52-6.48,2.78,3.7,3.24v3.88a5.28,5.28,0,0,1-5.34,1.82l-1.57-1.19c-1.76,1.58-3.6,2-5.32-.06-3.5,1.79-3.5,1.79-6.06,0-2,1.17-4,2.32-6-.08-2.33,1.82-4.59,1.89-6.94-.25-3.1,2.44-6.76,2.59-10.49,2.31C324.58,215.07,323.23,214,321.87,212.43Zm39.65-4.67c.08,1.76-.49,3.29,1.14,4.37h2.43c.55-.65,1-1.19,1.75-2Z"/><path class="cls-1" d="M77.72,209.18l1.92.26L79,214.26l1.22,2.22c2.5.27,4.92.86,7.66-.79L84.05,214v-2c.33-.18.54-.39.75-.39,2.62,0,5.24,0,7.86-.05,1,0,2-.07,2.49-1.28-.19-1.69-1.35-2.83-2.52-3.94A2.42,2.42,0,0,1,92,203l6.94-3L100,202l-5.82,2.68c2.59,1.94,2.8,5.59,5.55,6.85,2.48-.37,2.77-2.08,3.35-3.64h1.66l.47,3.61c1.89-.66,1.73-2.41,2.27-3.61,2.87-.13,1.35,2.52,2.56,3.64l1.5-.83-1.08-3.51,1.64-1.25c.45.85.84,1.46,1.12,2.11s.45,1.41.75,2.37l-1.15,2.87L110,214.57l-2.23-.86-2.3.76v-.37h-5.31l0,.47-3-1.24-6.55,1.48-3,4.15H79.27C76.09,216.25,76.32,213,77.72,209.18Z"/><path class="cls-1" d="M213.22,211.52l1.81-3.6,1.44-.11c.21,1.23.4,2.39.63,3.72,2-.62,1.36-2.63,2.35-3.6,2.43-.23,1.27,2.36,2.83,3.36h3.1c1.07-1.47-.24-2.63-.38-4.09l2.16-1.27c.5,1.65.92,3,1.33,4.39-.24.81-.49,1.63-.72,2.39-1.76,2.1-4.54,2.33-7.57.58l-1.82.78H212.7l0,.45-2.06-.79v.38H205.3l0-.26-5,.77-2.2-2.32v-11l1.81-.36c1.08,3.41.57,6.92,1.11,10.4h2.61l.62-2.9,1.56-.82,1.37,3.68,1.68.14,1.68-3.6h1.33a10.6,10.6,0,0,1,.42,1.57,13.5,13.5,0,0,1,0,1.8Z"/><path class="cls-1" d="M180.92,96.41l2.73-1.88h4.45c3,1.47,3,1.47,4.58,4.41v4.77c-3.57,4.16-5.82,5.13-8.91,3.89s-4.48-3.51-4.47-7.95C179.78,98.7,180.33,97.6,180.92,96.41Z"/><path class="cls-1" d="M197.22,210.52c-.35,1.09-.62,1.9-.9,2.75-1.55,1.4-3.25,1.65-4.47.83h-5.56v-.36l-2.85,1c-2.2,5.68-6.72,6.22-11.38,3.88-3.72-1.87-2.44-5.72-1.48-9.17h1.66c.75,1.54.08,2.91-.43,4.5l1.19,2.25c1.56,1,4.85.74,7.73-.53L177.05,214v-2.36h7.68l1.74-3.73h1.59c.15,1.21.28,2.34.44,3.64,2-.71,1.55-2.65,2.56-3.76l1.55.16c.08,1.17.15,2.24.24,3.63l2-.69-1.07-3.74,1.17-1C197.38,207.1,195.86,209.56,197.22,210.52Z"/><path class="cls-1" d="M206.31,99.5c5.57-6.31,9.87-5.61,12.68,2-.31,1-.67,2.18-1,3.27-1.82,2.47-4.11,3.69-7.41,3.06L207.68,106C205.9,104.14,206.25,101.85,206.31,99.5Z"/><path class="cls-1" d="M142.39,288.94v6.41h-3.46V280.08c2.58-.83,5.3-.19,8.17-.36l2.79,2.37.18,3.05c-.79,1-1.55,1.91-2.23,2.75l3.15,7c-.54.35-.73.57-.94.59-.62,0-1.24,0-2.28,0-.61-1.4-1.27-2.95-2-4.49C145,289.26,145,289.27,142.39,288.94Zm4.56-4.75c-1-2-2.4-2.59-4.49-1.78l.18,3.84C144.8,286.78,146.1,286.15,147,284.19Z"/><path class="cls-1" d="M42.85,211.45c.08,3.65-1.93,5.28-4.39,5.89-2.83.72-5.74.42-7.6-2.54a6.33,6.33,0,0,1,1.19-5.51l.38,3.5,1.78,1.59c2.75,0,5.56.69,7.8-1.94l-2.4-3.92,1.1-2.32,2.74,2.38,1.6-1.51,1.64,1.52,1.24-1.92,1.35,1.7h2.64l.86-1.28,2,1.51L56,207.1l2.92,1.69.41-3.62c.27.05.54,0,.6.11,1.5,2.42.81,4.44-.91,6.12C53.51,211.07,48.31,211.43,42.85,211.45Z"/><path class="cls-1" d="M168.14,119.8l2,2.92c.44,2.83,0,5.35-2.8,7-3.25,1.92-5.61,0-8-1.91l-1-2.93,1.48-4.16C162.53,118.41,165.14,118,168.14,119.8Z"/><path class="cls-1" d="M204.8,295.66v-7.91l-2-1.44-2.57,1.93v7.14h-2.87V279.13h2.86v5.59l5.63-.6,1.85,2.79v8.32Z"/><path class="cls-1" d="M116.19,209.42l1.87-1.09,2,2.92h4.07v-2.57l2.29-1.07.62,3.69,3.12.2c.17-.52.42-.88.37-1.19-.17-1-.45-1.9-.73-3l1.68-1.19c2.16,1.94,1.08,4.27,1.39,6.22a5.62,5.62,0,0,1-7.18,1.48l-6.17.91a7.58,7.58,0,0,1-5.29,5.18l-1.63-1.16c1.3-2.14,4.33-2.47,4.78-5.57Z"/><path class="cls-1" d="M226.85,291.68c.76,1.7,0,2.49-1.2,3.13-4.58,2.39-9.75-.45-10.41-5.77a9.62,9.62,0,0,1,1.92-7c1.82-2.51,6.57-3.15,9.08-1.32a1.75,1.75,0,0,1,.62,2.6l-4.81-1.44c-3.63,2.32-3.33,5.51-2.85,8.58.34,2.17,2.81,3.26,5,2.49A27.94,27.94,0,0,0,226.85,291.68Z"/><path class="cls-1" d="M184.39,285.79c.31,1.26.63,2.63,1.05,4.36H177l1.61,3.08,5.64-.47.33,1.46c-2.85,2.06-5.69,1.53-8.59.36-2.39-3.7-2.58-6.11-.62-8.42S180.14,283.57,184.39,285.79Zm-2.28,1.95c-2.2-1.57-2.58-1.58-4.5,0Z"/><path class="cls-1" d="M158.2,286.4l-4.92.71-.4-1.42c3.61-2.19,5.63-2.11,9,.4v9.41l-2.95-.39-4.92.63-1.82-2,.19-3.14c1.91-1.78,4.13-2,6.69-1.94Zm-2.82,5.76c2.21,1.42,2.21,1.42,3.56-.84C157.55,291,156.31,290.67,155.38,292.16Z"/><path class="cls-1" d="M243.81,295.44H241c-.67-3.61-.07-7.18-.34-10.77,1.39-.67,2.48-.8,3.26.66a11.46,11.46,0,0,1,2.58-1.07,3.8,3.8,0,0,1,4.75,3.84c.11,2.34,0,4.7,0,7.24h-3v-7.78a7.47,7.47,0,0,0-1.06-.74,8.54,8.54,0,0,0-1.24-.36l-2.2,1.87Z"/><path class="cls-1" d="M235.87,263.84c.17-2.78.32-5.21.48-7.86,2.28-2.08,5.11-.58,7.82-1l1.61,3.93,1.46-3.78H249a60.64,60.64,0,0,1-3.32,9.71l-1.78-.19c1.57-3.12-.22-5.51-1.45-8.52-.44.8-.69,1.25-.93,1.71s-.42.85-.68,1.38l-3.61.73,4,.47,1.34,1.87-2.09,2.53C238.77,264.65,237.09,265.34,235.87,263.84Zm2-7,.06.93,1.88-.3-.07-.63Zm-.09,5.23c.88,1.11,1.74,1.54,2.28-.17Z"/><path class="cls-1" d="M138.13,219.38l-.13-1.73,5.58-2.61c-.93-.47-1.35-.72-1.8-.9-1-.37-2-.71-2.78-1-.6-5.13-.38-5.56,3.32-6.83,3.44,2.23,4.68,5,3.61,8a8.36,8.36,0,0,1-3.5,4.26C141.24,219.33,140,220.33,138.13,219.38Zm5.68-8.08-2.44-2.64L141,211.3Z"/><path class="cls-1" d="M234.07,213c-.25-5.24-.12-5.46,3.81-6.73l2.44,2.12c2.16,6.66-.39,10.9-6.6,11.31a3.73,3.73,0,0,1-.42-1,4.78,4.78,0,0,1,.13-1.13l5.4-2.6Zm5-1.66-2.46-2.63c-.18,1.24-.27,1.85-.41,2.76Z"/><path class="cls-1" d="M157.56,212.93c-.23-5.27-.14-5.41,3.63-6.64a5.5,5.5,0,0,1,.92.49c.68.54,1.33,1.13,1.77,1.5L165,212c-1.31,5.45-3.28,7.36-7.93,7.63l-.36-1.74,5.71-3Zm2.36-3.94v2.53l2.33-.37a10.15,10.15,0,0,0-.9-1.45A6.31,6.31,0,0,0,159.92,209Z"/><path class="cls-1" d="M156.47,177.24c.31,2.23.68,3.69-.95,5l-2.66-.46c-1.84.87-4.22.55-6.54.37-.81-.06-1.63,0-2.32-.06a4.47,4.47,0,0,0-4.87,2c-1.12,1.52-3.31,1.45-5.2,1-2.15-2.53-2.16-2.91-.11-5l.43,3.24c1.87.79,3.16.23,4.49-.89L138,179l.44-.28,1.89,2.13,2.32-2.46.79,2.71,1.8-3.37.65,2.45,2,.64,2.59-2.22.73,2.41,2.24-2.14,1.29,1.83Z"/><path class="cls-1" d="M164.32,287.6c1.41-3.41,1.6-3.51,6.63-3.23l1.18,2.41c-.7.18-1.12.43-1.34.32a2.58,2.58,0,0,0-3.59.49l5.18,2.67v3.34c-2,2.35-4.44,2.08-7.27,1.77l-1-2.31c.53-.27.8-.51.94-.45a5.45,5.45,0,0,0,4.42.21C168.72,290.07,164.77,290.87,164.32,287.6Z"/><path class="cls-1" d="M193.62,284.26c.29,1,.53,1.79.8,2.68-1.73.46-3.12-1.3-4.61.27.85,2.22,3.91,1.35,5.13,3.84l.11,2.26c-2,2.66-4.54,2.38-7.51,2-.27-.75-.57-1.57-1-2.63,2-.14,3.68,1.21,5.46-.09-1-2.45-4.74-1.92-5.25-5,.08-1.62,1.5-2.44,2.85-3.34Z"/><path class="cls-1" d="M264.15,286.49c-.62,1.17-1.12,2.13-1.77,3.38l1.95,3.65L268.4,292v2.23c-2.43,1.94-4.91,1.74-7.41.1-2.46-4.34-2-6.76,1.94-9.88,4.85-.47,5.13-.34,5.46,2.64Z"/><path class="cls-1" d="M246.25,79.54l4,1c.92,2.15-.92,3.22-1.59,4.69-3.94,2-3.94,2-8.32.67-1-1.65.8-2.37,1.24-3.53C242.36,80.41,244.4,80.25,246.25,79.54Z"/><path class="cls-1" d="M239.9,93.37c2.72-5.35,5.31-6,11.14-3.06l-1.73,3.53C246.11,95.92,243.08,95.81,239.9,93.37Z"/><path class="cls-1" d="M248,96c2.62,1,5.23,1.25,6.3,3.9-1,2-1,2-4.89,3.58-2.44-.84-4.85-1.89-6.51-4.73Z"/><path class="cls-1" d="M227.79,117.32c.21,1.11.38,2.06.58,3.12a4.32,4.32,0,0,1-4.32.9c-3.29-1-4.72-3.61-5-6.76.85-1.63,2.21-1.4,3.38-1.24C224.79,113.67,226.23,115.43,227.79,117.32Z"/><path class="cls-1" d="M136.73,137.82c-.64-2.51,1-4.11,1.63-5.79,2.44-2,5-1.57,7.6-1.45C145.4,137,141.83,138.81,136.73,137.82Z"/><path class="cls-1" d="M123.73,117.81c2.75-4.56,7.11-5.14,11.19-.93C131.58,121.82,127.77,122.19,123.73,117.81Z"/><path class="cls-1" d="M248.87,106.23l-3.44,2.44h-4.6l-3.54-4C241.78,100.7,244.41,101,248.87,106.23Z"/><path class="cls-1" d="M137.84,123.37c.6,2.88-1.33,4.47-3.23,6.3-2.19.06-4.5.45-6.76-.38C129.17,123.7,131.21,122.51,137.84,123.37Z"/><path class="cls-1" d="M223.26,96.11c1.92-.69,3.7-2,5.89-1.44.73,5.92-.65,7.43-7.77,8.51V98.72Z"/><path class="cls-1" d="M166.64,108.12a7.92,7.92,0,0,1-5.32-3.66c0-2.22-.56-4.56.63-6.73C167.84,99.51,169.35,102.91,166.64,108.12Z"/><path class="cls-1" d="M239.59,114.16c-5.82,2-8.45.69-10.09-4.84l.89-1.18H235l2.65,1.87Z"/><path class="cls-1" d="M156.4,111c-3.06.28-4.76-1.48-6.28-3.41v-5.24c3.53-.39,3.64-.35,6.31,2.13l1,4.1Z"/><path class="cls-1" d="M139,111c.52-.31.83-.64,1.15-.65,1.24-.07,2.48,0,3.73,0,3.2,1.18,4.15,3.85,4.59,6.86C143.59,119,139.85,116.58,139,111Z"/><path class="cls-1" d="M134.19,106.59c-1,2-2.83,2.92-5.09,3.46l-3.62-.79L123,106.9C125.66,102.34,129.14,102.25,134.19,106.59Z"/><path class="cls-1" d="M170,54.4c-.7,2-.5,4.19-2.49,5.52-2.31.28-2.49-1.8-3.31-3.2-1.62-2.79,0-4.93,1.42-7.22C168.46,49.83,169.32,52,170,54.4Z"/><path class="cls-1" d="M228.7,295.65v-16.5h2.9v16.14Z"/><path class="cls-1" d="M155.75,95.82c-6,.19-8.09-1.8-7.81-7.12,1.49-1.76,3.14-.81,4.63,0C154.59,89.72,155.79,92.55,155.75,95.82Z"/><path class="cls-1" d="M192.09,71.38c-2.31-1.2-2.41-3.19-3-4.91.44-2.39,1.3-4.5,3.83-5.75a5.65,5.65,0,0,1,2.81,4.81C195.73,68.21,194,69.73,192.09,71.38Z"/><path class="cls-1" d="M164.76,86.4c.74,3.37-1.07,5.21-2.51,7.26-3.24-.42-3-3.38-4.08-5.54,1.1-1.68,1-4.11,3.29-4.92C163.59,83.51,163.44,85.77,164.76,86.4Z"/><path class="cls-1" d="M337.78,256.27l-2.47,1.05v4.07l-1.91.48c-.74-2.18-.26-4.28-.39-6.61l6.41-.33,1.43,3.55c1.59-.52.77-2.18,1.61-3.37l2-.11c-1.15,3.45-2.19,6.54-3.24,9.68l-1.64.09a22.17,22.17,0,0,0-.06-4.25A25.5,25.5,0,0,0,337.78,256.27Z"/><path class="cls-1" d="M146.26,81.51c.14-1.46-.29-3.1.5-4.55,3-.09,4.58,1.74,6.12,3.73V85.8C149.38,86.43,148.23,85.68,146.26,81.51Z"/><path class="cls-1" d="M227.14,87.48l-4.66,1.78c-1.8-1.59-1.4-3.32-.51-5,1.33-2.57,3.31-4.13,6.63-3.86C228.88,82.78,229.15,85.05,227.14,87.48Z"/><path class="cls-1" d="M199.1,87.07l-1.7-4.31c.47-2.76,1.52-5.11,4.41-6.15C205.62,80.24,204.72,84.25,199.1,87.07Z"/><path class="cls-1" d="M184.65,60.07c-2.5-.37-3-2.3-3.83-3.66-.17-2.61-.28-5,1.76-6.76C187.42,51.32,188,54.17,184.65,60.07Z"/><path class="cls-1" d="M228.42,59.84l-3.71,1.4c-2.08-2.37-1-4.76.07-7.46l4.86-2.43c.55,1.52,1,2.64,1.47,4Z"/><path class="cls-1" d="M132.17,77.43c2.31-1.79,4.5-.92,6.8.33.78,1.84,2.43,3.4,1.92,5.73C135.93,84.66,133.66,83.12,132.17,77.43Z"/><path class="cls-1" d="M207.9,81c.7-3.27,2.52-5.34,5.82-6a4.44,4.44,0,0,1,1.39,4.75c-.81,3-3.4,4-6.18,5.07C208.59,83.53,208.29,82.39,207.9,81Z"/><path class="cls-1" d="M192.24,85.84,189,80.65c1-2.09.71-4.73,3.32-5.72C197.15,77.19,196.37,82.47,192.24,85.84Z"/><path class="cls-1" d="M245.2,70.82V75l-3.54,2.85-4.21.89c-1.18-2.55.3-4.39,1.29-6.37C240.62,71.25,242.47,69.91,245.2,70.82Z"/><path class="cls-1" d="M168.37,66.15c3.37-.79,5,1.07,6.28,3.5v5c-2.09.88-3.63-.12-5-1.42C167.6,71.17,167.68,68.67,168.37,66.15Z"/><path class="cls-1" d="M215.6,72.57l-.91-3.67c.68-3.13,2.41-5.41,5.94-5.92C223.35,67.78,221.9,70.54,215.6,72.57Z"/><path class="cls-1" d="M211.73,46.54c.26.21.64.39.8.69.48.85.87,1.74,1.31,2.66-.21.74-.42,1.43-.62,2.13s-.32,1.17-.5,1.78l-3.78,2.92C205.41,52.81,206.47,48.86,211.73,46.54Z"/><path class="cls-1" d="M147.09,63.27c-.09-3.65-.09-3.65,1.13-5.48.62.24,1.3.47,1.95.76s1.31.68,2,1c2.19,2.23,1.55,4.94,1.45,7.61C150.49,67.14,150.49,67.14,147.09,63.27Z"/><path class="cls-1" d="M162.31,78.73l-2.85-1L157,74.69v-5.5c2.14-.41,3.38,1.11,5,1.69A6.3,6.3,0,0,1,162.31,78.73Z"/><path class="cls-1" d="M174.36,78.9c4.5,4.2,4.54,6,.26,11.17l-2.54-2.39C171.35,82.42,171.44,82.09,174.36,78.9Z"/><path class="cls-1" d="M126.59,96.53c1-.49,1.69-.92,2.47-1.23a21.53,21.53,0,0,1,2.27-.64c2.32.93,4.88,1.83,5.7,4.85-1.93,2.17-4.39,1.82-6.92,1.62C128.88,99.83,127.19,98.91,126.59,96.53Z"/><path class="cls-1" d="M212.52,84.66l3.9-2.87c3.17,4.78,2.78,6.22-2.53,10.34C211.28,90.27,211.13,89.58,212.52,84.66Z"/><path class="cls-1" d="M237.47,57.92c1.68,2.38,1.68,2.38,1.69,5.15a7.6,7.6,0,0,1-6.31,4.42l-1-4,1.85-3.72Z"/><path class="cls-1" d="M195.16,59.28l-2.38-3.52V51.62l2.74-3.78,3,3.36C199.38,54.46,198.16,57,195.16,59.28Z"/><path class="cls-1" d="M214.11,60.09c1.73,5.27.72,7.38-4.53,9.65a5.69,5.69,0,0,1-.41-6.46C210.13,61.35,211.35,59.65,214.11,60.09Z"/><path class="cls-1" d="M180.82,81.52l1.83-3.4c2.55-.39,3.3,1.61,3.84,3.2,1,2.85-.06,5.29-2.54,7.21C181.09,87.08,180.5,84.63,180.82,81.52Z"/><path class="cls-1" d="M230.41,90.6c-.23-5.59,2.12-7.66,7.71-7C238.64,88.79,236.42,90.9,230.41,90.6Z"/><path class="cls-1" d="M185.2,66.53c-.19,2,.85,4.25-1,6.11-5.77-2.78-6.79-5-4.52-9.51C182.61,63.61,182.61,63.61,185.2,66.53Z"/><path class="cls-1" d="M144.87,74.35c-5-1.84-5.83-3.31-5-9h2.89A5.86,5.86,0,0,1,144.87,74.35Z"/><path class="cls-1" d="M225.71,72c3.6-1.92,3.6-1.92,5.88-2v5.27c-1.35,2.31-3.68,3.31-6.45,3.86a14,14,0,0,1,.65-7.23Z"/><path class="cls-1" d="M139,90.19a6.55,6.55,0,0,1,6.05,1.3c.7,1.7,2.29,3.32,1.76,5.62C141.21,98.06,138.54,95.71,139,90.19Z"/><path class="cls-1" d="M136.64,91c-1.81,1.85-3.65,1.06-5.19,1.28a6.39,6.39,0,0,1-4.73-5.17l4.1-1.68,3.83,1.76Z"/><path class="cls-1" d="M201.54,59.18l3,3.19c.35,4.43.29,4.58-2.57,7.36C197.75,67,197.51,63.48,201.54,59.18Z"/><path class="cls-1" d="M123.75,261.87c-2.31-1.22-4.79,1.33-6.69-1.46V257a3.19,3.19,0,0,1,4.16-1.82l.54-3.77,1.75-.18C123.94,254.7,123.65,258.08,123.75,261.87Zm-3.87-1.57c1.74-.77,2.06-1.77,1.24-3.06-.22-.35-.75-.5-1.35-.88l-1.21,2.69Z"/><path class="cls-1" d="M273.89,251.23l1.93.14v10.09c-2.22-.22-4.6,1.27-6.54-1.1v-3.42l1.58-1.85,2.78-.26Zm-1.72,9c2.21-2,2.2-2.07-.19-3.78L270.76,259Z"/><path class="cls-1" d="M308.47,251.32h1.86c.11,1.14.22,2.21.34,3.48l2.89.26c2.26,1.77,1.18,4.2,1.49,6.46a8.61,8.61,0,0,1-1.36.2c-.22,0-.43-.18-.79-.36-.09-1.48-.19-3-.31-4.91l-1.93.75c-.09,1.45-.17,2.79-.27,4.37l-1.92.19Z"/><path class="cls-1" d="M69.75,256.67v3a3.33,3.33,0,0,1-4.28,2l-.37,2.93H63.19v-9.34c1.12-.53,2.22.78,3.45-.18C67.39,254.49,68.84,254.84,69.75,256.67Zm-1.66,1.66-1.15-1.87c-1.8.73-2,1.77-1.28,3.06.21.35.77.5,1.08.68.29-.17.44-.2.49-.29C67.48,259.48,67.71,259,68.09,258.33Z"/><path class="cls-1" d="M207.86,261.76V251.45l2-.25c.11,1.5.21,2.82.3,4.1l2.64-.35c1.51.76,1.8,2,1.67,6.5l-1.95.44-.45-5.45-1.89.78c-.09,1.44-.17,2.78-.27,4.37Z"/><path class="cls-1" d="M283.29,264.76l-1.83-.11V255.3c1-.91,2.08.91,3.34-.17.91-.77,2.38-.11,3.2,1.35v3.32l-1.6,1.88-2.67.21C283.6,262.73,283.48,263.55,283.29,264.76Zm1.79-8.57c-2,2.39-2,2.39.12,4.09l1.14-1.87Z"/><path class="cls-1" d="M187.49,256.33v3.49l-1.82,2-2.44-.38-.41,3.16-1.85.12v-9.29C186,255.21,186,255.21,187.49,256.33Zm-2.75,4.12,1.1-2.19-1.29-1.84C182.58,258.41,182.58,258.41,184.74,260.45Z"/><path class="cls-1" d="M137.16,213.45l-2,.88c-1.81-1.86-.26-4.16-.75-6.21s-.1-4.05-.1-6.24l1.42-1C137.51,203.68,137.51,203.68,137.16,213.45Z"/><path class="cls-1" d="M234.86,295.57V284.51a5.8,5.8,0,0,1,1.17-.29,13.52,13.52,0,0,1,1.59.16v11Z"/><path class="cls-1" d="M254.4,284.32h2.65c.56,3.62.05,7.26.32,11.05h-3Z"/><path class="cls-1" d="M241.69,220.23l-1.6-1.52c1.49-2.21,5.11-2.7,4.63-6.79-.11-.36-.44-1.39-.83-2.64l2.41-.91c.41,1.54.76,2.82,1.11,4.12C246.91,216,245.27,218.78,241.69,220.23Z"/><path class="cls-1" d="M231.41,200.79c.39,3.11.85,5.53.94,8a28,28,0,0,1-.7,4.91l-2.06.94c-.11-4.38-.2-8.39-.31-12.9Z"/><path class="cls-1" d="M144.83,261.33c-.59.25-.81.43-1,.42a5.52,5.52,0,0,1-1-.22,3.58,3.58,0,0,1-.27-.77c0-1.74,0-3.48,0-5.56l5.21-.27c2.18,2,1.28,4.31,1.56,6.65h-2.18l-.24-5.1-2.07.86Z"/><path class="cls-1" d="M146.43,220.38l-1.7-1.89a25.46,25.46,0,0,0,2.9-2.17,23.6,23.6,0,0,0,2.12-2.65l-1-4.44,2.24-.78C153,214.63,151.64,217.29,146.43,220.38Z"/><path class="cls-1" d="M62.27,258.94l-1.68,2.69h-4l-.55-1.52c.34-.17.58-.4.7-.35,1.24.58,2.37.81,3.26-1l-3.66-2.46-.23-3.16a16.13,16.13,0,0,1,3-1.13c1.23-.22,2.16.34,2.34,2l-2.54-.5L58.28,255l3.11,2Z"/><path class="cls-1" d="M254.54,261.59c-1.46-.89-1.32-2.16-.72-3.66a11.93,11.93,0,0,1,1.58-.68,3,3,0,0,0,1.58-.7h-3.55c1.36-2.38,3.2-1.39,4.67-1.52,2.1,1.89,1.15,4.2,1.45,6.56Zm2.68-1.85-.32-.92-1.63.85.21.53Z"/><path class="cls-1" d="M326.24,261.64h-4.86c-1.4-.7-1.47-1.95-.81-3.8l3.55-1.07-3.88-.39c1.36-2.21,3.19-1.23,4.68-1.31C326.81,257,326.1,259.16,326.24,261.64Zm-4.32-2.07.19.57,1.88-.52-.23-.71Z"/><path class="cls-1" d="M89.43,257.4l2.64-.4v-.33l-3.33-.18c1.28-1.57,1.28-1.57,4.41-1.4,2,1.75,1.12,4.09,1.39,6.51l-4.72.21C88,260.43,88,259.08,89.43,257.4Zm2.84,2.19-.22-.69-1.85.66.19.58Z"/><path class="cls-1" d="M261.18,255.3l5.18-.27c2.06,1.94,1.26,4.21,1.37,6.56h-2.17v-5.16l-2.34.93v4.24h-2Z"/><path class="cls-1" d="M201.21,255l-3.31,9.68-1.54.09c-.12-.26-.32-.49-.27-.62a4.86,4.86,0,0,0-.12-4.3,43.44,43.44,0,0,1-1.7-4.58l1.76-.4,1.85,4,1.27-3.79Z"/><path class="cls-1" d="M294.75,255.08h2l1.58,3.81c.57-1.47,1-2.61,1.46-3.79h1.31c.59.62-1.37,6.59-3.08,9.69l-1.58-.17C298.22,261.06,295.56,258.44,294.75,255.08Z"/><path class="cls-1" d="M64.41,206.18l1.78-2.08c2.79,1.3,2.43,6.62-.62,11-2.68.27-2.68.27-4.78-.79,2-1.56,4.93-1.9,6.17-4.79Z"/><path class="cls-1" d="M114.86,255.18l1.18,2.51c-1.27,2-3.17.59-4.56,1.28,1.23,1.34,1.23,1.34,3.8.81.52,1.17-.39,1.7-1.14,1.89a4.21,4.21,0,0,1-4.59-1.39v-3.79l1.55-1.6ZM113.64,257v-.3H112v.3Z"/><path class="cls-1" d="M72.84,254.91l3,.13c1.56.84,1.72,2,1.33,3.53l-3.87.38c1.15,1.36,1.15,1.36,3.75.8.53,1.14-.32,1.7-1.08,1.9a4.46,4.46,0,0,1-4.63-1.23v-4ZM75.35,257l-.09-.47-1.61.15,0,.32Z"/><path class="cls-1" d="M217.58,255c2.1.1,3.67-.45,5.06,1.27.06.91.15,2.12.25,3.46L220.66,262l-4.58-1-.2-4.39C216.41,256.08,217,255.48,217.58,255Zm1.56,1.19c-1.66,2.2-1.75,3.08-.72,3.78a1.69,1.69,0,0,0,2.47-.69c.2-.41.38-1.09.18-1.36A12.28,12.28,0,0,0,219.14,256.14Z"/><path class="cls-1" d="M164.25,256.79l1.68-1.6a4.85,4.85,0,0,1,5,1.13v3.93l-1.24,1.25c-2.41.57-4,.32-5.47-1.18Zm1.39,1.7a7.51,7.51,0,0,0,1.13,1.43,3.45,3.45,0,0,0,1.32.31c1.48-1.77,1.65-2.65.57-3.31C167.28,256.07,166.41,256.76,165.64,258.49Z"/><path class="cls-1" d="M227.84,256.76l1.65-1.53a5,5,0,0,1,5.21,1.09v3.95L233,262l-4.85-1C228,259.52,228,258.31,227.84,256.76Zm4.31,3.35c1-1,1.49-2,.47-2.93a2.16,2.16,0,0,0-1.91-.4,2.2,2.2,0,0,0-1,1.7C229.69,259.83,230.63,260.34,232.15,260.11Z"/><path class="cls-1" d="M176.58,255.79l-1.79,1.29v4.51l-1.79.15c-.3-2.09-.57-4-.92-6.49,1-.75.51-3.16,2.52-3.94.46-.17,1.1.11,2.07.24l-2.2,2.45Z"/><path class="cls-1" d="M137.21,261.64l-2,.11c-.31-3.4-.06-6.7-.19-10.2l2-.38C137.48,254.64,137.14,258,137.21,261.64Z"/><path class="cls-1" d="M224.47,251.33h1.83v10.23l-1.83.21Z"/><path class="cls-1" d="M96,251.38l2-.13c.47,3.39.13,6.71.21,10.21l-1.92.38C95.74,258.37,96.21,255.05,96,251.38Z"/><path class="cls-1" d="M190.58,256.5l3.78,3.13-1.77,2h-3.35l-.41-1.82,2.84.44c0-.41,0-.71-.1-.78-.8-.55-1.63-1-2.27-1.45-.76-1.54-.2-2.51,1-2.9,1.37-.44,2.72-.28,3.29,1.79Z"/><path class="cls-1" d="M292.38,259.76l-2.75-1.91c-.5-1.78.26-2.6,1.7-2.85a2.07,2.07,0,0,1,2.72,1.86l-3.08-.24c1.41,1.25,3.5,1.26,3.43,3.53-.93,1.8-2.57,1.9-4.61,1.44l-.43-1.77,2.87.36Z"/><path class="cls-1" d="M307.38,257.11l-2.46-.52c-1.47,1.1-1.43,2.22-.13,3.61l3.58-.47c-1.32,1.06-1.86,1.8-2.55,2a2.88,2.88,0,0,1-3.51-1.28v-4.07C305.55,254.27,306.27,254.36,307.38,257.11Z"/><path class="cls-1" d="M201.77,260.5v-3.95c3-2.28,3.55-2.26,5.31.47-.62,0-1-.06-1.43-.13a11.37,11.37,0,0,1-1.1-.35c-1.48.95-1.56,2.06-.39,3.57l2.66-.25c.34,1.15-.47,1.57-1.28,1.85C204.49,262.07,203.49,261.69,201.77,260.5Z"/><path class="cls-1" d="M106,259.77l2.48,1.38c-1.86,1-3.3.54-4.86.61-.86-2.35,1.69-3.22,1.84-5l-2.33-.69c.49-.5.76-1,1.08-1.06,1.2-.1,2.41,0,3.59,0C108.58,257.4,106.11,258.14,106,259.77Z"/><path class="cls-1" d="M129,260.61v-4.15c3.21-2.19,3.84-2.13,5.27.71l-1.46-.34c-.36-.08-.71-.17-1.07-.27-1.45,1-1.54,2.16-.2,3.58l2.62-.23C132.81,262.28,132.08,262.4,129,260.61Z"/><path class="cls-1" d="M84.45,257.27l-3-.69c-1.15,1.7-1.15,1.7-.09,3.62l2.58-.36.23.48c-.62.48-1.17,1.21-1.86,1.38a2.86,2.86,0,0,1-3.49-1.28v-4.09C81.93,254.39,82.14,254.4,84.45,257.27Z"/><path class="cls-1" d="M154.46,260.25v-3.19c2.48-2.82,3.41-2.89,5.37-.12a8.65,8.65,0,0,1-1.37,0,9.9,9.9,0,0,1-1.25-.37c-1.39,1.05-1.49,2.09-.36,3.45a11.36,11.36,0,0,0,1.61.07,1.6,1.6,0,0,1,1.42.27c-.62.47-1.17,1.19-1.86,1.36A2.94,2.94,0,0,1,154.46,260.25Z"/><path class="cls-1" d="M329.09,253.46c1,.74,2,1.46,3.34,2.41l-2.16,1v3l1.78.67c-.2.34-.31.77-.57.92-1.14.64-2.12.4-3-.9v-3.2L326.81,256Z"/><path class="cls-1" d="M208,71.91c.44.88.77,1.54,1.26,2.5l-2.9,4-1.74-2.82C205.3,74,205.44,72.13,208,71.91Z"/><path class="cls-1" d="M167.58,83.22,166,81.71c-.42-2.23-.32-3.85,1.39-5.25l2,1.83A5,5,0,0,1,167.58,83.22Z"/><path class="cls-1" d="M143.42,105.4l-3.1,1.89-3-1.72c.14-2.08,1.82-2,2.85-2.72C141.34,103.39,142.71,103.64,143.42,105.4Z"/><path class="cls-1" d="M202.54,48.48V45.53l1.92-2.14L206,45a5,5,0,0,1-1.68,5.14Z"/><path class="cls-1" d="M225.79,72l-4.22,1.89-.3-2.73c2.09-2.43,2.09-2.43,4.44-2.67V72Z"/><path class="cls-1" d="M255.93,86.12l-1.37,2.28c-1.6-.11-3.49.84-4.76-1.19C252,84.38,253.12,84.15,255.93,86.12Z"/><path class="cls-1" d="M232.66,57.51v-3.1c1.31-.31,2-2.39,3.93-1.71C237.06,56.39,236.42,57.2,232.66,57.51Z"/><path class="cls-1" d="M124.92,90.18l1.91,2c-3.06,2-3.06,2-6,.22C121.36,90.07,121.36,90.07,124.92,90.18Z"/><path class="cls-1" d="M119.15,100.35c.71-2.43,2.46-1.93,3.69-2.72l3.35,2.54-2.83,1.64Z"/><path class="cls-1" d="M188.52,44.36l2.87,2.14-1.13,3.72a4,4,0,0,1-1.29,0,7.65,7.65,0,0,1-1.3-.88C187.49,47.62,187,45.92,188.52,44.36Z"/><path class="cls-1" d="M224.13,51.2c-2-2.7-1.89-3.23.77-6.18,2.09.69,1.56,2.41,1.56,4.17Z"/><path class="cls-1" d="M173.84,60.76,171.9,59V54.91a3.27,3.27,0,0,1,3.47,2.75C175.68,58.84,175.66,60.14,173.84,60.76Z"/><path class="cls-1" d="M158.94,62.33l-2.05-1.86c-.15-1.6-.62-3.12,1.2-4.27l2.08,1.5A4,4,0,0,1,158.94,62.33Z"/><path class="cls-1" d="M235.16,95.69l3.58,1.19-1.25,2.57-2.38.72-2.56-.7Z"/><path class="cls-1" d="M235.24,81.17l-4.45,1.69c.57-4.22.91-4.58,4.45-4.78Z"/><path class="cls-1" d="M163.05,64.64h2.5l1.44,2.3-.76,2.74C163,68.4,162.89,68.28,163.05,64.64Z"/><path class="cls-1" d="M221.2,53.6l-2.28,2.18c-.6-1-1-1.82-1.53-2.63.54-1.44.68-3,2.34-3.65C221.84,50.27,221.19,52,221.2,53.6Z"/><path class="cls-1" d="M161.81,53.84c-2,.42-2.61-.79-3.46-1.7,0-1.3-.55-2.67.92-4l2.54,2.21Z"/><path class="cls-1" d="M178.78,48.49,177.6,52.4,175,50.6V46.79C176.94,45.88,177.43,47.55,178.78,48.49Z"/><path class="cls-1" d="M134.88,70.65V74c-3.3,0-4-.74-4.08-4.15A4.78,4.78,0,0,1,134.88,70.65Z"/><path class="cls-1" d="M125.69,111.25l-2.61,2-3.57-.16c-.77-2.27,1-2.67,2.09-3.84Z"/><path class="cls-1" d="M126.92,79.38c1.2,1.13,2.37,1.76,2,3.59l-2.88.35c-1.24-.89-2.49-1.55-2.14-3.55Z"/><path class="cls-1" d="M157.38,79.53l-3.54-.18c-.58-1-1.09-2-1.72-3.1l1.92-1C155.68,76,157.63,76.45,157.38,79.53Z"/><path class="cls-1" d="M180.8,76.54,179.66,78c-2.39-.42-2.57-2.41-3.14-4.2l.77-1.52C179.41,72.72,180.34,74.16,180.8,76.54Z"/><path class="cls-1" d="M240.65,63.45l2.64-2.52,1.7.82c-.13,3.25-.28,3.43-3.91,4.24Z"/><path class="cls-1" d="M140.49,57.82h2.29c1.53,1,2.43,2.16,1.82,4-1.15,1-2.2.12-2.94-.47A3.17,3.17,0,0,1,140.49,57.82Z"/><path class="cls-1" d="M318.53,261.68h-1.79v-6.47l1.79-.24Z"/><path class="cls-1" d="M138.77,255.17l1.86-.19c.68,2.21.24,4.36.33,6.62l-2,.19c-.07-1.16-.15-2.21-.18-3.27S138.77,256.54,138.77,255.17Z"/><path class="cls-1" d="M86.79,261.67H85v-6.49l1.83-.19Z"/><path class="cls-1" d="M150.77,255.17l1.86-.2c.7,2.21.24,4.36.33,6.62l-2,.21c-.07-1.17-.15-2.22-.19-3.28S150.77,256.54,150.77,255.17Z"/><path class="cls-1" d="M102,261.59l-1.86.18c-.72-2.09-.23-4.18-.36-6.42l1.85-.46C102.28,257.07,101.85,259.15,102,261.59Z"/><path class="cls-1" d="M125.3,218.21l-.89,2.73c-1.22-1.69-2.08-2.9-3.06-4.25l1.26-1.4,1.52,1.32,1.51-1.23,1.46,1.33-1.88,1.58-.54-.36Z"/><path class="cls-1" d="M216.72,203.28l2.31.77L218,206l-2.28-1c-.63-.1-1.62,1.42-2.6-.21.14-1.14.83-1.73,2.17-1.55l0,0c.54,1.07,1,1.06,1.55,0Z"/><path class="cls-1" d="M339.32,216.13l1.55,1.14,1-1.28,1.7,1.23-.63,1.29-3.74.21-1.07-1.15Z"/><path class="cls-1" d="M312.23,201.82l1.73,1.39,2.21-.85c.1.8.18,1.41.25,1.91-1.49,1.24-2.95-1.39-3.94.74l-1.36-1.49Z"/><path class="cls-1" d="M355.77,216.36l.44,2.24H352v-2Z"/><path class="cls-1" d="M108.71,203.28l2.45.67L110,206l-1.7-1.24-2.15.83-1.49-1.44,2.63-.91h0c.53.91,1,1.16,1.53,0Z"/><path class="cls-1" d="M234.58,279.86h3.08v2.75l-2.67.17C234.86,281.87,234.75,281.08,234.58,279.86Z"/><path class="cls-1" d="M257.43,282.65h-3.07v-2.76l2.67-.16C257.16,280.64,257.27,281.43,257.43,282.65Z"/><path class="cls-1" d="M45.78,201l1.82,1.62c-2.51.66-4.22.47-5.62-.65l2.27-.95h0c.47.92,1,.88,1.47,0Z"/><path class="cls-1" d="M344.61,263.77c.22-1.27.43-2.54.69-4.06l1.68-.25c.81,2.33-.78,3.33-1.62,4.66Z"/><path class="cls-1" d="M301.58,201.39l1.64,1.77-1.6,1.77-1.83-1.63Z"/><path class="cls-1" d="M130.36,204.86l-1.81-1.38,1.7-1.95,1.92,1.6Z"/><path class="cls-1" d="M204.64,206.87l-1.44-2.07,1.37-1.77,1.88,1.47Z"/><path class="cls-1" d="M119,204.75l-1.84,2.51-1.87-2.12,2.43-1.68Z"/><path class="cls-1" d="M225.45,201.45l1.72,1.33c-.53.66-1,1.25-1.91,2.34-.34-.72-.58-1.26-1-2.09Z"/><path class="cls-1" d="M141.75,174.75l2.16,2h-4.28l-.18-.51,2.3-1.48Z"/><path class="cls-1" d="M347.47,205.89v-3.65l2.41,1.72Z"/><path class="cls-1" d="M140.94,252V254l-1.93.26-.27-2Z"/><path class="cls-1" d="M99.94,254.4l-.2-2.08,1.92-.41.44,2Z"/><path class="cls-1" d="M84.93,254.39l-.17-2.06,1.92-.42.42,2Z"/><path class="cls-1" d="M316.38,252.18l2-.21.45,1.91-2,.49C316.73,253.66,316.6,253.11,316.38,252.18Z"/><path class="cls-1" d="M152.84,251.84l.18,2.06-1.88.47-.47-2Z"/><path class="cls-1" d="M215.26,203.26l-.6-1.3,1.28-1.08,1.38,1.06-.6,1.34.07-.06-1.55,0Z"/><path class="cls-1" d="M44.25,201l-.55-1.29,1.2-1.07,1.46,1-.58,1.3-.06,0-1.47,0Z"/><path class="cls-1" d="M107.24,203.25l-.54-1.19,1.24-1.3,1.44,1.11-.67,1.41.08-.06-1.53,0Z"/><path class="cls-1" d="M146.22,123.78c1.59,0,2.39,1,3,2.24l0,0a3.16,3.16,0,0,1-3-2.25Z"/><path class="cls-1" d="M399.92,203.26v-2.85h1.28Z"/><path class="cls-1" d="M141.75,174.75H140l1.28-2.18.45,2.18Z"/><path class="cls-1" d="M176.21,170.21l-.14,1.29-.45-.18.67-1Z"/><path class="cls-1" d="M223.53,107.29l1.05-.71.2.45-1.32.18Z"/><path class="cls-1" d="M113.29,139.45l-.75-1.49-.07.07.74,1.5Z"/><path class="cls-1" d="M113.21,139.53l.67,1.09-.43.18-.16-1.35Z"/><polygon class="cls-1" points="175.12 179.03 175.01 178.78 175.28 178.81 175.12 179.03"/><path class="cls-1" d="M205.53,90l.29-.61-.36.54Z"/><path class="cls-1" d="M144.79,122.21l-.63-.27.55.34Z"/><path class="cls-1" d="M144.71,122.28l.76.75.06-.06-.74-.76Z"/><path class="cls-1" d="M145.47,123l.75.75.06,0-.75-.76Z"/><polygon class="cls-1" points="260.6 148.31 260.52 148.03 260.74 148.06 260.6 148.31"/><polygon class="cls-1" points="259.85 149.8 259.77 149.53 259.99 149.56 259.85 149.8"/><path class="cls-1" d="M273,210.88,277,208.3l2.21,1.42c-.5.59-.82,1.35-1.25,1.42-1.54.26-3.13.29-4.69.41Z"/><path class="cls-1" d="M292.58,208.51l2.32,1.28c-1.79,2.17-3.84,1.73-5.95,1.68C289.53,209.66,291,209.3,292.58,208.51Z"/><path class="cls-1" d="M361.52,207.76l5.32,2.34c-.72.84-1.2,1.38-1.75,2h-2.43C361,211.05,361.6,209.52,361.52,207.76Z"/><path class="cls-1" d="M147,284.19c-.85,2-2.15,2.59-4.31,2.06l-.18-3.84C144.55,281.6,145.93,282.19,147,284.19Z"/><path class="cls-1" d="M182.11,287.74h-4.5C179.53,286.16,179.91,286.17,182.11,287.74Z"/><path class="cls-1" d="M155.38,292.16c.93-1.49,2.17-1.21,3.56-.84C157.59,293.58,157.59,293.58,155.38,292.16Z"/><path class="cls-1" d="M237.92,256.88h1.87l.07.63-1.88.3Z"/><path class="cls-1" d="M237.83,262.11l2.28-.17C239.57,263.65,238.71,263.22,237.83,262.11Z"/><path class="cls-1" d="M143.81,211.3H141l.39-2.64Z"/><path class="cls-1" d="M239.06,211.3l-2.87.13c.14-.91.23-1.52.41-2.76Z"/><path class="cls-1" d="M159.92,209a6.31,6.31,0,0,1,1.43.71,10.15,10.15,0,0,1,.9,1.45l-2.33.37Z"/><path class="cls-1" d="M119.88,260.3l-1.32-1.25,1.21-2.69c.6.38,1.13.53,1.35.88C121.94,258.53,121.62,259.53,119.88,260.3Z"/><path class="cls-1" d="M272.17,260.28,270.76,259,272,256.5C274.37,258.21,274.38,258.31,272.17,260.28Z"/><path class="cls-1" d="M68.09,258.33c-.38.71-.61,1.15-.86,1.58,0,.09-.2.12-.49.29-.31-.18-.87-.33-1.08-.68-.75-1.29-.52-2.33,1.28-3.06Z"/><path class="cls-1" d="M285.08,256.19l1.26,2.22-1.14,1.87C283.1,258.58,283.1,258.58,285.08,256.19Z"/><path class="cls-1" d="M184.74,260.45c-2.16-2-2.16-2-.19-4l1.29,1.84Z"/><path class="cls-1" d="M257.22,259.74l-1.74.46-.21-.53,1.63-.85Z"/><path class="cls-1" d="M321.92,259.57l1.84-.66.23.71-1.88.52Z"/><path class="cls-1" d="M92.27,259.59l-1.88.55-.19-.58,1.85-.66Z"/><path class="cls-1" d="M113.64,257H112v-.3h1.67Z"/><path class="cls-1" d="M75.35,257H73.67l0-.32,1.61-.15Z"/><path class="cls-1" d="M219.14,256.14a12.28,12.28,0,0,1,1.93,1.73c.2.27,0,.95-.18,1.36a1.69,1.69,0,0,1-2.47.69C217.39,259.22,217.48,258.34,219.14,256.14Z"/><path class="cls-1" d="M165.64,258.49c.77-1.73,1.64-2.42,3-1.57,1.08.66.91,1.54-.57,3.31a3.45,3.45,0,0,1-1.32-.31A7.51,7.51,0,0,1,165.64,258.49Z"/><path class="cls-1" d="M232.15,260.11c-1.52.23-2.46-.28-2.48-1.63a2.2,2.2,0,0,1,1-1.7,2.16,2.16,0,0,1,1.91.4C233.64,258.14,233.2,259.14,232.15,260.11Z"/><path class="cls-1" d="M125.3,218.21l-.62-.28.54.36Z"/><path class="cls-1" d="M215.24,203.24l1.55,0C216.29,204.3,215.78,204.31,215.24,203.24Z"/><path class="cls-1" d="M107.26,203.25l1.53,0C108.31,204.41,107.79,204.16,107.26,203.25Z"/><path class="cls-1" d="M44.25,201l1.47,0C45.21,201.88,44.72,201.92,44.25,201Z"/></g></g></svg>