<svg xmlns="http://www.w3.org/2000/svg" viewBox="0 0 169.1 169.12"><defs><style>.cls-1{fill:#00909f;stroke:#00909f;stroke-miterlimit:10;}</style></defs><title>Asset 2</title><g id="Layer_2" data-name="Layer 2"><g id="Layer_1-2" data-name="Layer 1"><path class="cls-1" d="M6.79,115.12C-6,86.75-.17,45.29,32,19.13a83.62,83.62,0,0,1,109.08,3.32c30.3,27.62,33.91,70.7,18.8,98.42,1.06-6.28,2.64-13.75,3.52-21.3a80.43,80.43,0,0,0-6.85-42.69C146.2,33.6,129.07,17.6,104.33,10.5c-30.4-8.72-64.71,3.73-83.24,29.61A88.29,88.29,0,0,0,4.21,96C4.45,102.88,6,109.72,6.79,115.12Z"/><path class="cls-1" d="M126.07,168.62H53.15c4.36-1.17,9.43-2,14.07-3.93a55,55,0,0,0,13.63-7.63,43.9,43.9,0,0,0,10-11.46c2.64-4.39,4-9.57,5.43-13.32C98.21,149.72,106.11,164,126.07,168.62Z"/><path class="cls-1" d="M100.29,71.4c-1.6,5.44-3.37,10.39-4.42,15.48-.45,2.2-.24,5.61,1.13,6.83s4.71.89,6.91.26c3.76-1.09,7.3-3,11.33-3.92-2.11,1.78-4.23,3.53-6.32,5.33-9.88,8.52-15,19.7-17.88,32.11-2,8.68-4.58,17.12-10.91,23.85a12,12,0,0,1-2.91,2.75c2-5.2,4.92-10.24,5.86-15.63C85,127.83,85.8,117,87,106.27,88.29,94,91,82.19,99.24,72.4,99.47,72.12,99.77,71.9,100.29,71.4Z"/><path class="cls-1" d="M73.51,148.71c.18-4.14,1-8.64.41-13-.79-6.32-4.39-11.23-9.74-14.86q-9.42-6.39-18.44-13.34c4.45,2,8.79,4.41,13.37,6.09,7,2.55,11.11-.16,11.24-7.6.1-6-.68-11.92-1.09-17.87-.12-1.73-.32-3.45-.52-5.65C79.31,101.88,86.8,133.23,73.51,148.71Z"/><path class="cls-1" d="M88,81.63a6.67,6.67,0,0,1-6.19,6.66,7.11,7.11,0,0,1-6.88-6.54,6.55,6.55,0,0,1,6.79-6.41A6,6,0,0,1,88,81.63Z"/><path class="cls-1" d="M113.84,82.22a6.35,6.35,0,0,1-5.91,6.1c-3.15,0-6.05-3.08-6-6.41a6.59,6.59,0,0,1,5.83-5.76C110.56,76.07,113.86,79.38,113.84,82.22Z"/><path class="cls-1" d="M54.56,105.25c0-3.09,2.7-6,5.52-5.87,2.57.08,5.38,3.14,5.32,5.79-.05,2.86-2.73,5.66-5.42,5.68S54.57,108.05,54.56,105.25Z"/><path class="cls-1" d="M114.64,95.28c3.7-1.66,7.69.12,8.39,3.6.49,2.43-1,3.22-3.07,2.78C116.68,101,115.53,98.38,114.64,95.28Z"/><path class="cls-1" d="M134.06,94.8c-4.24,1.32-7,.1-8.35-3.3-.71-1.83-.18-2.47,1.68-2.64C131.12,88.53,133.49,90.51,134.06,94.8Z"/><path class="cls-1" d="M30.92,96.79c-4.69,5-6.22,5.23-11.45,1.81,1.4-1.22,2.56-3.08,3.87-3.19C25.52,95.22,27.79,96.15,30.92,96.79Z"/><path class="cls-1" d="M32.56,118c.55-5.43,2.47-6.92,7.88-6.34C40.84,116.42,38.16,118.66,32.56,118Z"/><path class="cls-1" d="M117.32,83.88c-.45-5.68,1.21-7.47,7.51-8.46-.52,2.07-.43,4.3-1.5,5.4C121.92,82.26,119.59,82.79,117.32,83.88Z"/><path class="cls-1" d="M61.74,88.42c-3.42-1.22-5.13-3.3-4.81-6.8.24-2.58,1.57-3.18,3.74-1.71C63.23,81.64,63.66,84.49,61.74,88.42Z"/><path class="cls-1" d="M135.9,73.75c2.69-4.76,5.31-5.41,9.75-2.64C143.86,75.94,141.19,76.71,135.9,73.75Z"/><path class="cls-1" d="M145.44,61.85c-1.17,4.92-3.8,6.22-8.76,4.34C137,61.44,140.42,59.77,145.44,61.85Z"/><path class="cls-1" d="M32.81,105c-1.43,4.34-3,5.5-6.73,5.2-2.5-.21-2.55-1.43-1.63-3.22C26.11,103.73,29.35,103,32.81,105Z"/><path class="cls-1" d="M43.44,97.75c-3.55.94-6.09-.09-7.7-3.07A3.22,3.22,0,0,1,35.49,92a3.21,3.21,0,0,1,2.6-.84C41.92,91.57,42.9,94.39,43.44,97.75Z"/><path class="cls-1" d="M133.39,85.45c3.66-3.45,5-3.36,9.68.53C141,90.49,137.13,90.36,133.39,85.45Z"/><path class="cls-1" d="M52.68,91.66c-6.15-1.49-7.11-2.87-6.84-9.08,1.8.76,3.92,1,4.68,2.13C51.67,86.43,51.86,88.79,52.68,91.66Z"/><path class="cls-1" d="M18.93,87.14c3.34-4,6.74-3.91,9.8.24C25.1,91,22.22,91,18.93,87.14Z"/><path class="cls-1" d="M149.36,80.86c-3.7,3.68-7,3.24-9.8-1.09C143,76.25,146.17,76.56,149.36,80.86Z"/><path class="cls-1" d="M28.61,57.69c4.93-.48,6.6.93,7.39,6C31.41,65,28.53,62.75,28.61,57.69Z"/><path class="cls-1" d="M48.15,64.67c-.27.31-.89,1.62-1.74,1.79-1.87.36-4.6-3.16-4.35-5.66.09-.94,1-2.4,1.78-2.57C45.78,57.81,48.23,61.17,48.15,64.67Z"/><path class="cls-1" d="M108.65,72.2c-2.07-4.83-1.27-6.88,3.28-8.91C114.61,67.18,113.63,70,108.65,72.2Z"/><path class="cls-1" d="M40.06,54.47c-3.22-.88-5.1-2.71-4.87-6.31.14-2.16,1.24-2.48,3-1.75C41.13,47.66,42,51.17,40.06,54.47Z"/><path class="cls-1" d="M75.36,43.93c3.41.88,5.42,2.51,5.16,6.08-.2,2.75-1.63,2.92-3.45,1.52C74.58,49.63,73.24,47.27,75.36,43.93Z"/><path class="cls-1" d="M31.94,79.73c0,.12,0,.28-.11.34-2.7,2.16-6.42,2-8.09-.61A3,3,0,0,1,24,76.52C26.29,74.8,29.73,76.3,31.94,79.73Z"/><path class="cls-1" d="M97.12,50.16c-3.71-3.86-3.73-5.4-.31-9.59C100.92,43,101.08,45.93,97.12,50.16Z"/><path class="cls-1" d="M133.11,57.94c.14-4.87,2.69-7,7.19-6.08C140.27,56.73,137.92,58.72,133.11,57.94Z"/><path class="cls-1" d="M121.23,58.82c-1.15-4.68,0-6.49,4.86-7.93Q129,57.75,121.23,58.82Z"/><path class="cls-1" d="M57.55,58.89c-5.16-2.45-6-4.16-4.3-8.56C58.28,51.32,59.69,54,57.55,58.89Z"/><path class="cls-1" d="M22.79,68c4.28-2.4,6.93-1.32,8.56,3.47C27.18,73.82,24.26,72.63,22.79,68Z"/><path class="cls-1" d="M34.84,71.16c4.67-.49,6.25.88,7.09,6.12C37.27,78.46,34.37,76,34.84,71.16Z"/><path class="cls-1" d="M78.61,30.61c4.32,3,4.53,4.78,1.27,9.22C75.61,37.61,75.14,34.62,78.61,30.61Z"/><path class="cls-1" d="M87.77,65.34c-3.43-3.16-3.43-6.1,0-9.34C92,59,92,62.16,87.77,65.34Z"/><path class="cls-1" d="M70,70.07c-3.5-3.76-3.55-6.28-.33-9.5C73.88,62.84,74.05,65.9,70,70.07Z"/><path class="cls-1" d="M115.94,44c2.11,4.62.18,7.88-4.61,8.18C110.38,47.16,111.06,45.9,115.94,44Z"/><path class="cls-1" d="M68,55.66c-1.38-1.65-3-3.15-4-5-.44-.84.43-2.39.71-3.61,1.2.43,3,.52,3.48,1.37,1,1.83,1.36,4,2,6.09Z"/><path class="cls-1" d="M133.09,64.52c.12.21.35.43.33.64-.25,3.51-2.92,6.36-5.73,5.87a2.77,2.77,0,0,1-1.65-2.1C126.11,66.06,129.59,64,133.09,64.52Z"/><path class="cls-1" d="M50,76.83c-1.81-1-3.88-1.81-5.33-3.22-.81-.78-.58-2.63-.82-4,1.61.19,3.73-.18,4.7.71,1.36,1.24,1.87,3.42,2.74,5.2Z"/><path class="cls-1" d="M79.32,68.49c-3.92-3.68-4-5.76-.43-9.45C83,61.9,83.1,64.28,79.32,68.49Z"/><path class="cls-1" d="M106.91,27.57c3,3.62,2.24,6.16-2.55,8.86C101.56,32.47,102.38,29.64,106.91,27.57Z"/><path class="cls-1" d="M91.29,29.7c3.73,3,3.7,5.24-.13,9C87.28,36,87.33,32.61,91.29,29.7Z"/><path class="cls-1" d="M48.27,47.45c-3.47-.42-5.12-2.33-5.48-5.34a3.11,3.11,0,0,1,.93-2.55,3.19,3.19,0,0,1,2.69.37C49.15,41.67,49.46,44.2,48.27,47.45Z"/><path class="cls-1" d="M88.66,41.79c3.35,4.4,2.81,7-1.72,9.35C84.16,47.3,84.62,44.65,88.66,41.79Z"/><path class="cls-1" d="M57.05,64.14c4.06,4,4.06,5.81.22,9.61C53.6,70.77,53.49,67.9,57.05,64.14Z"/><path class="cls-1" d="M61.47,30.52c4.09,2.81,4.41,5.29,1.34,9.32C58.56,37.51,58.1,34.76,61.47,30.52Z"/><path class="cls-1" d="M104.53,64.25c-.91-5.16-.17-6.5,4.49-8.11C111.57,60,109.5,63.75,104.53,64.25Z"/><path class="cls-1" d="M128.42,47.5c-.39-6,.22-7,4.67-8.16C135.57,43.24,133.91,46.3,128.42,47.5Z"/><path class="cls-1" d="M123.32,61.11c1.4,5.14-.1,7.23-5.31,7.75C117.08,64.26,118,62.89,123.32,61.11Z"/><path class="cls-1" d="M124.67,32.63c1.87,4.72.93,6.63-4,8.46C118.39,37.26,119.57,34.61,124.67,32.63Z"/><path class="cls-1" d="M108.57,40.9c2.44,4.56,1.31,7.22-3.49,8.69C103.33,45.25,104.11,43.19,108.57,40.9Z"/><path class="cls-1" d="M95.15,66.81c-2.7-4.07-1.88-6.91,2.37-9C100.34,61.72,99.74,64.18,95.15,66.81Z"/><path class="cls-1" d="M36.05,102.44c3.48-2.26,6-1.4,7.39,2.47C39.84,106.83,37.66,106.11,36.05,102.44Z"/></g></g></svg>