<svg xmlns="http://www.w3.org/2000/svg" viewBox="0 0 340.41 276.16"><defs><style>.cls-1{fill:#fff;}</style></defs><title>footer-logo_1</title><g id="Layer_2" data-name="Layer 2"><g id="Layer_1-2" data-name="Layer 1"><path class="cls-1" d="M81.83,118.45c-2.53-4.16-3.65-8.85-4.91-13.48a76.38,76.38,0,0,1-2.46-26.64,85,85,0,0,1,30.18-58.66A80,80,0,0,1,139.35,2.32,79.94,79.94,0,0,1,162.66.15,87.1,87.1,0,0,1,193.89,8,81.36,81.36,0,0,1,220,26.92c9.08,10,15.9,21.25,19.41,34.44a95.91,95.91,0,0,1,3,19.44c.92,16.51-3.26,31.66-11.17,46-.12.21-.36.34-.94.85.94-2.71,1.64-5,2.54-7.27,1.85-4.64,2.68-9.51,3.54-14.4,1.37-7.81,1-15.7.51-23.51a69.82,69.82,0,0,0-3.18-16A85.46,85.46,0,0,0,221.6,41.74a82.89,82.89,0,0,0-24.66-22.92,74.94,74.94,0,0,0-26-9.71,78.45,78.45,0,0,0-23.8-.27,74.57,74.57,0,0,0-31.47,11.93,79.54,79.54,0,0,0-24,24.75A82.93,82.93,0,0,0,79.48,78.88c-.4,3.07-.48,6.19-.83,9.27a54.46,54.46,0,0,0,.18,13.2c.6,4.66,1.64,9.26,2.47,13.88.19,1.09.31,2.2.46,3.29Z"/><path class="cls-1" d="M169.72,128.89c.9,4.31,1.58,8.85,2.81,13.24,3.95,14.12,14.44,24.13,29.79,26a5.14,5.14,0,0,1,.92.46H123.66c4.16-.91,8.43-1.71,12.61-2.81,9.75-2.56,18.23-7.36,24.73-15.17A38,38,0,0,0,169.72,128.89Z"/><path class="cls-1" d="M174.76,70.47c-.8,2.59-1.61,5.17-2.37,7.77-.91,3.07-1.9,6.12-2.64,9.23-.49,2.06-.57,4.2.93,6a5.55,5.55,0,0,0,5.61.59c4.45-1.83,8.89-3.71,13.36-5.5a25.39,25.39,0,0,1,3.17-.82l-.07-.08a155,155,0,0,0-13,11,46.78,46.78,0,0,0-10.93,17.19c-1.78,4.87-3.15,9.91-4.48,14.92-1.45,5.43-3.12,10.75-6.15,15.5a32.84,32.84,0,0,1-12.27,11.5c1-1,2-2,2.9-3,4.36-4.71,6.51-10.53,8-16.6A114.45,114.45,0,0,0,159.23,121c.69-8,1.22-16,2.67-24,1.5-8.23,4.23-15.78,9.11-22.53a36.3,36.3,0,0,1,3.82-3.93Z"/><path class="cls-1" d="M118.52,106.52c1.12.49,2.25,1,3.34,1.47,3.47,1.66,6.88,3.44,10.38,5a12,12,0,0,0,7.54.86c3-1.62,3.93-4.72,4.25-8,.5-5.23-.34-10.42-1-15.6-.14-1.1-.34-2.2-.45-3.31-.22-2.32-.39-4.65-.63-7.48,2.6,4.39,4.07,8.77,5.75,13a99.33,99.33,0,0,1,5.65,19.2c1.67,9.62,2.39,19.25-1.13,28.64a50.26,50.26,0,0,1-4.08,7.92,11.73,11.73,0,0,1-2.67,2.41l.08.07c.75-3.24,1.93-6.45,2.18-9.73.66-8.55-3-15.14-10-20-5.49-3.86-11-7.72-16.43-11.66a23.07,23.07,0,0,1-2.8-2.87Z"/><path class="cls-1" d="M23,213.78q148.45,0,296.89,0c.33,0,.65.26,1.51.62a7.91,7.91,0,0,1-1.9.7c-2,.06-4,0-6,0q-143,0-286.07,0C25.91,215.13,24.25,215.56,23,213.78Z"/><path class="cls-1" d="M231.67,195.79l-3.39-1.29v-2.45h8.28c.62-1.39,1.12-2.5,1.75-3.94l2.3,1.88c1.87-2.25,4.29-4,7.93-3.09l1.84,1.73c.11,1.05.21,2.12.32,3.23h1.54L254,188l2.34,2.08c1.95-2.13,4.23-4.25,7.85-3.17,1.78,1,2.13,2.81,2.19,4.68,3.39.59,5.25.24,8.51-1.56-1-.32-1.93-.64-2.87-.93A6.85,6.85,0,0,0,271,189l-2.51,1.37-1.25-.81c-.21-1.56,1.1-2.48,4.29-3.31l7.4,2.65c-.08.8-.17,1.82-.27,2.89h4.94l-.92-4.3,1.57-.89c.37.39.7.6.83.9.95,2.15,1.34,4.29-.31,6.38A8.66,8.66,0,0,1,275,193c-6.59,2.31-16.27,2.72-20.37,1.09A33.47,33.47,0,0,1,238.2,194l-3.71,1.43c-.26.81-.57,1.73-.82,2.51-4.36,2.82-6.21,3-11.13.73-2.06-2.84-1.6-5.83-.19-9l1.77.34c-.23,2-.46,3.91-.68,5.83C226.21,198,228.86,197.55,231.67,195.79Z"/><path class="cls-1" d="M291.22,193c-.28-2-.42-3.87,1.45-5.64v4.51c3.68,2.64,7.36,1.9,11.17.41-.15-3-3.19-3.21-4.35-5.34.2-.76.45-1.7.72-2.76A41.92,41.92,0,0,1,309.3,180l-1.11,2.41-6.51,3.05,7.36,7.23c2.6.52,2.2-2.68,4.07-3.88v2.85c1.05,1.53,2.4,1.1,4,.86a24.66,24.66,0,0,1,.28-2.54c.17-.77.48-1.51.92-2.83.63,2.18,1.06,3.7,1.55,5.38h2.7c.67-1.14,1.33-2.29,2.45-4.21v3.18c2,1.47,2,1.47,4,.17,1.14-3-.93-6.32.78-10l1.34,2.74,9.26-3.85-1,2.48L332.94,186l3.66,3.07v4c-3.1,2.44-3.65,2.5-6.63.83a10,10,0,0,1-3,1c-.88,0-1.78-.66-2.82-1.09-1.69,1-3.59,2.11-5.68-.1-1.92.91-4,2.33-6.05-.05-2.39,1.79-4.8,1.9-6.91-.23C300.36,196.65,294.62,196.5,291.22,193Z"/><path class="cls-1" d="M47.16,189.58l1.82.54-.75,4.55,1.11,2c3.7.89,4.71.83,7.66-.57l-3.78-1.75.17-2.16c3.73-.55,7.38.37,10.82-.6.43-2.08-.74-3.1-1.71-4.2s-2.24-1.77-1.32-3.92l7-3.05,1.16,2.11L64.07,185c1.93,4.46,3.3,6.13,5.73,7,2-.33,1.93-2.36,2.82-3.57l1.42.17.55,3.33.6.13c.6-1.14,1.19-2.29,1.8-3.45,2.79-.32,1.05,2.57,2.47,3.44l1.38-.58-1-3.77,1.27-1c1.76.93,1.38,2.72,2.21,4.09l-1.07,3.08-2.8,1.2,0-.42h-10l0,.4-3.07-1.17L60,195.3l-3.05,4.14H48.63C45.27,196.71,45.59,193.45,47.16,189.58Z"/><path class="cls-1" d="M182.46,192.09c.7-1.33,1.31-2.49,1.93-3.65h1.33l.94,4.24c.94-1.86,1.5-3,2.08-4.14,2.44-.32,1.29,2.31,2.89,3.26h3.52c-.27-1.51-.49-2.78-.75-4.23l1.59-1c1.91,2,1.91,4.22,1.11,6.61-2.34,2.11-4.83,2.29-7.76.64l-2.34,1-2.5-.75c-1.33.38-2.76,1.14-4.47.25-.66-.34-1.86.35-2.81.24h-7.71c-.48-.47-1.28-1.22-2.09-2V181.89l2.11-.45c.26,3.57.49,6.93.73,10.23a7.76,7.76,0,0,0,1.3.31,6.83,6.83,0,0,0,1.05-.14c1.38-.79-.16-3.33,2.51-3.45.43,1.05.91,2.23,1.39,3.44h1.71c.53-1.11,1.06-2.2,1.62-3.38C182.8,188.09,180.89,190.93,182.46,192.09Z"/><path class="cls-1" d="M152.83,75.15c7.13-1.38,10.48,3,9,9.26-1.89,2.76-4.35,4.78-8,3.89A6.53,6.53,0,0,1,148.66,83C148,79.35,149.79,76.8,152.83,75.15Z"/><path class="cls-1" d="M166.5,191c-.35,1.08-.62,1.91-.93,2.84-.51.27-1,.79-1.6.79-2.5,0-5-.09-7.52-.17a3.21,3.21,0,0,1-.8-.28l-3.05,1c-1.6,4.25-5.32,5.9-9.9,4.4-3.67-1.2-4.38-3.7-2.73-9.64.22-.1.44-.3.65-.29a7.81,7.81,0,0,1,1.2.38c0,.75,0,1.47-.12,2.18a21.48,21.48,0,0,1-.54,2.17l1.18,2.34a9.2,9.2,0,0,0,7.67-.68l-3.62-1.61v-2.27h7.5l2-3.82,1.59.1.27,3.43c.54-.22,1-.26,1.13-.49.52-1,.94-2,1.44-3.09l1.53.17.5,3.6,1.81-.84c-.36-1.24-.66-2.3-1-3.55l1.11-1.06C166.39,187.53,165.51,189.64,166.5,191Z"/><path class="cls-1" d="M175.69,80c3.19-5.05,8.18-5.69,11.51-1.1.34,1,.7,2,1,3-1.52,5.36-3.06,6.58-8.23,6.43l-2.87-1.8C175.28,84.57,175.46,82.33,175.69,80Z"/><path class="cls-1" d="M116.87,275.4c-1.85-1.9-.93-5.72-5-6v6.4l-3.71.34c-.14-5.37-.09-10.4,0-15.67h8.41l2.7,2.27v3.18l-2.1,2.5,3.18,7.1C118.21,276,118.21,276,116.87,275.4Z"/><path class="cls-1" d="M12.3,191.84c-.24,3.71-2,5.55-4.85,6.09s-5.5.2-7.26-2.62c-.33-1.86-.4-3.67,1.22-5.51l.31,3.38c3.09,2.55,6.1,2.48,9.5-.28L8.89,189,10,186.82,12.8,189l1.6-1.38,1.75,1.64.54-1.71a18.18,18.18,0,0,0,2.85,1.35,2,2,0,0,0,2.52-1.3L23.87,189l1.57-1.29,2.68,1.56.49-3.59c.34.16.62.2.7.35,1.32,2.32.66,4.26-1,5.85Z"/><path class="cls-1" d="M137.29,100.12c.85,1.23,1.47,2.15,2.09,3.06.45,2.95,0,5.44-2.87,7-3.12,1.77-5.43.15-7.86-1.91-.29-.81-.66-1.85-1.08-3l1.66-4.47,4-2Z"/><path class="cls-1" d="M174.55,276.09c-1.54-3.13.83-6.63-2.18-9.33l-2.71,1.92v7.07L167,276c-.84-2.82-.32-5.55-.41-8.23s0-5.2,0-8l3-.36c.1,2,.19,3.81.28,5.75l4.92-.56c4.09,3.08,1.69,7.27,2.59,11Z"/><path class="cls-1" d="M85.49,189.88l1.88-1,2,3h3.76l.53-2.84,1.92-.83c.3,1.26.54,2.29.85,3.57h3.42c-.24-1.44-.45-2.71-.68-4.15l1.52-1c2,1.91,1.49,4.14,1.3,6.26-2.17,2.7-4.79,2.34-7.1,1.46l-5.9.85c-2.51,3.86-1.38,3.11-5.13,5.2a4.24,4.24,0,0,1-1-.27,5.76,5.76,0,0,1-.9-.74,3.52,3.52,0,0,1,.54-1c1.51-1.27,3.49-2.06,4.13-4.55C86.36,192.81,86,191.52,85.49,189.88Z"/><path class="cls-1" d="M196,272.23a1.83,1.83,0,0,1-.6,2.85,7.05,7.05,0,0,1-10.24-3.33,9.31,9.31,0,0,1,1.08-8.88c1.78-2.7,6.37-3.57,9-1.8,1,.67,1.63,1.53.79,2.76l-4.66-1.41c-3,2.44-4,5.84-2.78,8.84a3.72,3.72,0,0,0,4.54,2.29A21.13,21.13,0,0,0,196,272.23Z"/><path class="cls-1" d="M153.32,266.11c1,2.23,1,2.23.81,4.61h-7.75c.69,1.24,1.12,2,1.67,3l5.44-.55.43,1.51c-3,2.09-5.92,1.62-8.76.24-2.29-3.73-2.34-6.46-.22-8.6S149.63,264.14,153.32,266.11Z"/><path class="cls-1" d="M127.54,267l-5,.59-.36-1.52c3.66-2,5.38-2,8.93.35.51,2.94.2,6.12.21,9.31h-7.8c-2-1.84-2-1.84-1.66-4.75,1.63-1.67,3.84-1.9,6.42-1.87Z"/><path class="cls-1" d="M213.12,275.91h-2.75c-.75-3.64-.12-7.19-.37-10.59,1.55-1.07,2.54-.6,3.37.46a10.8,10.8,0,0,1,2.36-1,3.79,3.79,0,0,1,4.85,3.72c.14,2.34,0,4.7,0,7.26L218,276a4.1,4.1,0,0,1-.48-1.12c-.06-1.74,0-3.49-.11-5.22a11,11,0,0,0-.69-2.39c-2-.5-2.65.7-3.62,1.63Z"/><path class="cls-1" d="M205.14,244.18c.17-2.66.32-5,.49-7.62,2.16-2.18,5-.73,7.74-1.11l1.74,3.77,1.45-3.58,1.17-.1c.7.62-.59,4.88-2.66,9.49a3,3,0,0,1-.68.23,4.91,4.91,0,0,1-1-.18c1.05-2.92-.13-5.44-1.67-8.3-1.11,1.72-1.63,4-4.38,3.48,1.63.63,3.88-.08,4.31,2.82l-1.7,2C206.94,245.29,206.94,245.29,205.14,244.18Z"/><path class="cls-1" d="M107.74,200.12c-.21-.5-.39-.72-.39-.94a5.66,5.66,0,0,1,.15-1l5.35-2.73-4.53-1.79c-.7-4.83-.29-5.62,3.31-6.77,3.22,2,4.51,4.68,3.69,7.66S111.47,199.85,107.74,200.12Z"/><path class="cls-1" d="M203.82,193.74c-1.17-4.28-.66-5.47,2.77-6.91,3,1.48,4.54,4.16,4.08,7.08-.51,3.17-3.43,5.66-7.57,6.3l-.66-2.05c1.09-.44,2-.75,2.87-1.18s1.46-.91,2.52-1.59Z"/><path class="cls-1" d="M127.55,193.84c-1.66-3.8-1.07-5.42,2.61-7.07,3,.85,3.57,3.4,4.1,5.85-1.21,5.24-2.83,6.86-7.65,7.59l-.71-1.73,5.8-3.12Z"/><path class="cls-1" d="M125.67,158c.51,2.1.63,3.52-.58,4.5-1.88.1-3.55.14-5.21.29-2.53.24-5-.4-7.58-.25a4,4,0,0,0-3.14,1.14c-2.13,2.25-2.18,2.23-5.89,1.86-2-2.19-2-2.19-.15-5.49a12.51,12.51,0,0,0,0,2.32,11.36,11.36,0,0,0,.94,2l4-1c-.29-1.48-.51-2.63-.9-4.63l3,3,1.59-3.13,1.07,2.87,1.64-3.11c.31.94.56,1.67.76,2.28,2.23,1.43,3.26-.31,4.51-1.6l1.14,3.09,2-2.8,1.22,1.82C124.54,160.14,125,159.31,125.67,158Z"/><path class="cls-1" d="M133.52,267.61c.57-.64,1.19-1.8,2.16-2.3a7.08,7.08,0,0,1,3.58-.54c1.45.1,2.21,1,1.67,2.73-1.29.44-2.83-1.39-4.27.59l5,2.73v3.26c-2,2.27-4.41,2.38-6.91,1.63-1.06-.32-1.49-1.25-.81-2.55,1.53-.08,3.22,1.28,4.9-.19C137.59,270.77,134.18,271.23,133.52,267.61Z"/><path class="cls-1" d="M163.34,267.53c-1.33.25-2.78-1.37-4.07.19.25,1.24,1.31,1.24,2.22,1.59a19.44,19.44,0,0,1,2.66,1.56v3.22c-2,2.27-4.41,2.37-6.91,1.62-1.06-.32-1.47-1.26-.8-2.56,1.52-.12,3.25,1.45,4.85-.27-1.23-2.11-4.65-1.66-5.16-4.78,0-1.63,1.36-2.48,2.78-3.28C163.33,264.6,163.37,264.62,163.34,267.53Z"/><path class="cls-1" d="M233.44,267l-1.68,3.43c.53,1.06,1.07,2.13,1.76,3.53l4.14-1.39.15,2c-2.61,2.1-5.09,1.95-7.56.18-2.41-4.48-1.81-7.12,2.57-10.12l4.74.52.26,2.05c-.35.21-.57.46-.74.43C235.9,267.44,234.73,267.21,233.44,267Z"/><path class="cls-1" d="M215.62,60.1l3.73.92c1.24,2.07-.63,3.17-1.31,4.59-4.14,2.38-4.15,2.38-8.52.59C210.41,62.48,211.33,61.54,215.62,60.1Z"/><path class="cls-1" d="M209.23,73.89c2.64-5.35,5.6-6.08,11.06-3l-1.66,3.33C215.47,76.41,212.44,76.29,209.23,73.89Z"/><path class="cls-1" d="M217.46,76.67c2.57.76,5.11,1.19,6.16,4C222.86,83,220.53,82.91,219,84c-2.77-.75-5-1.88-6.61-4.37C213.49,77.8,215.51,77.46,217.46,76.67Z"/><path class="cls-1" d="M197,97.8c.22,1.13.4,2.08.6,3.07-.83,1-3,1.41-4.8.76-2.76-1-4.15-3.28-4.24-7C192,93.1,193.49,93.62,197,97.8Z"/><path class="cls-1" d="M106.05,118.23c-.53-2.4.82-4,1.58-5.61,2.3-2.15,4.9-1.65,7.47-1.58C115.13,116.54,112.35,118.75,106.05,118.23Z"/><path class="cls-1" d="M93.21,98.3c2-4.48,7.26-5.11,11-.94C101,102.32,96.74,102.69,93.21,98.3Z"/><path class="cls-1" d="M218.17,86.71l-3.45,2.45h-4.27c-1.29-1.22-2.62-2.47-3.95-3.74C210.79,81.28,213.68,81.56,218.17,86.71Z"/><path class="cls-1" d="M107.11,104c.56,2.73-1.3,4.24-3,6a14.23,14.23,0,0,1-6.8-.13C98.28,104.21,100.78,102.77,107.11,104Z"/><path class="cls-1" d="M198.44,75.12c.67,6-.77,7.55-7.72,8.53V79.27C192.24,76.17,194.9,75.08,198.44,75.12Z"/><path class="cls-1" d="M135.9,88.59a7.51,7.51,0,0,1-5.14-3.49c-.32-2.15-.62-4.44.47-6.65C137,79.69,138.67,83.3,135.9,88.59Z"/><path class="cls-1" d="M208.56,94.89,204.83,96c-3.45-.79-5.46-2.81-6-6.22,1.42-2.24,3.52-.76,5-1.34C207.45,90.74,207.45,90.74,208.56,94.89Z"/><path class="cls-1" d="M125.66,91.5c-3.48-.38-3.53-.41-6.24-3.5V82.86c2.63-.94,4.53.17,6.27,2.09.32,1.25.65,2.57,1,4.1Z"/><path class="cls-1" d="M108.31,91l4.57-.3c3.49,1.39,4.43,4,4.84,6.89C112.68,99.42,109.83,97.56,108.31,91Z"/><path class="cls-1" d="M103.38,87.11c-.94,2.16-2.94,2.8-5,3.41l-3.65-.82L92,87.46C95.73,82.68,98.74,82.7,103.38,87.11Z"/><path class="cls-1" d="M136.53,40.55c-4.29-2.62-4.72-5.69-1.65-10.36C139.75,31.34,140.57,36,136.53,40.55Z"/><path class="cls-1" d="M198.25,276.13a18.08,18.08,0,0,1-.26-1.89c0-4.74,0-9.47,0-14.51l3-.17v16.16Z"/><path class="cls-1" d="M124.9,76.08c-5.56.73-8.3-1.84-7.49-7.13,1.85-1.24,3.53-.44,5.07.64S125.08,73.5,124.9,76.08Z"/><path class="cls-1" d="M161.21,51.75c-2.14-1-2.19-3-2.8-4.71.4-2.45,1.28-4.52,3.57-5.69C166.31,44.49,166.1,47.82,161.21,51.75Z"/><path class="cls-1" d="M134.07,67c.58,3.3-1,5.22-2.69,7.19-2.81-.72-3-3.23-3.77-5.55.83-1.72,1-4,3.62-5.13Z"/><path class="cls-1" d="M307,236.92l-2.22.66c-.12,1.47-.22,2.81-.35,4.37l-1.74.35c-.62-2.23-.29-4.29-.3-6.54l6.23-.34c.58,1.23,1.1,2.33,1.79,3.81l1.45-3.59,1.14-.11c.71.64-.41,4.47-2.65,9.61l-1.73.2C309.7,242.13,308.54,239.54,307,236.92Z"/><path class="cls-1" d="M116.22,57.44c2.81,0,4.4,1.64,5.82,3.66v5.42a4.69,4.69,0,0,1-5.31-2.11A6.7,6.7,0,0,1,116.22,57.44Z"/><path class="cls-1" d="M196.39,68l-4.75,1.81c-1.61-2-1.16-3.89-.11-5.61a6.44,6.44,0,0,1,6.24-3.33C198.3,63.35,198.43,65.59,196.39,68Z"/><path class="cls-1" d="M168.38,67.43l-1.63-4.22c.48-2.87,1.59-5.09,4.37-6.05C174.94,60.79,173.94,65,168.38,67.43Z"/><path class="cls-1" d="M153.92,40.5c-4.49-2.06-5.17-5.93-2-10.27C156.7,31.74,157.35,34.79,153.92,40.5Z"/><path class="cls-1" d="M197.82,40.29,194,41.72c-1.85-2.33-1.09-4.65.14-7.39l4.73-2.44c.57,1.47,1,2.57,1.53,3.92Z"/><path class="cls-1" d="M101.53,57.67a6.27,6.27,0,0,1,6.62.58c.92,1.74,2.56,3.39,2,5.82C104.81,64.86,102.74,63.36,101.53,57.67Z"/><path class="cls-1" d="M177.24,61.68c.61-3.57,2.54-5.52,5.79-6.18,2.84,4.48,1.59,7.07-4.75,9.66C177.94,64,177.6,62.9,177.24,61.68Z"/><path class="cls-1" d="M162.11,66c-2.21-1.75-2.21-1.75-3.65-5.22.67-2,.81-4.3,3.1-5.38C166,58.34,166.12,61.25,162.11,66Z"/><path class="cls-1" d="M214.24,51.27a5,5,0,0,1,.28,1.12c0,.86-.08,1.73-.13,2.76l-2.78,3-4.64,1c-.82-2.74-.82-2.74,1.14-6.31C209.91,51.62,211.79,50.48,214.24,51.27Z"/><path class="cls-1" d="M137.75,46.66c3.17-.76,4.79,1,6.1,3.35v5.27a4.85,4.85,0,0,1-5-1.76C137,51.47,136.94,49.1,137.75,46.66Z"/><path class="cls-1" d="M185,53.17c-.33-1.3-.61-2.36-.91-3.54a6.68,6.68,0,0,1,5.74-6.15C192.65,47.94,191.38,50.59,185,53.17Z"/><path class="cls-1" d="M181,27.06c.27.22.65.4.81.7.46.86.83,1.77,1.29,2.78-.39,1.26-.78,2.54-1.18,3.82l-3.84,2.87C174.91,32.69,175.93,29.21,181,27.06Z"/><path class="cls-1" d="M116.34,43.75c.18-1.84-.52-3.63.88-5.27,1.69-.08,2.93,1,4.28,1.63,2,2.44,1.76,5,1.08,7.81C119.56,47.88,118.12,45.81,116.34,43.75Z"/><path class="cls-1" d="M131.58,59.22l-2.85-1-2.46-3v-5.4c2.25-.46,3.57,1,5.16,1.72C133.06,54.07,133.38,56.56,131.58,59.22Z"/><path class="cls-1" d="M143.68,59.49c4.4,4,4.46,5.88.31,11.13L141.27,68C140.74,64.68,140.66,61.76,143.68,59.49Z"/><path class="cls-1" d="M95.9,76.91l4.53-1.78c2.63.93,5,2,5.89,4.85-1.87,2.15-4.31,1.89-6.85,1.6C98.13,80.38,96.54,79.4,95.9,76.91Z"/><path class="cls-1" d="M185.89,62.43c2.94,4.88,2.26,7-3,10.17C179.41,68.92,180.43,65.28,185.89,62.43Z"/><path class="cls-1" d="M206.77,38.46c1.59,2.26,1.59,2.26,1.67,4.87-2.2,3.6-2.59,3.88-6.31,4.5l-.91-3.72c.53-1.11,1.11-2.35,1.79-3.79Z"/><path class="cls-1" d="M164.67,39.58c-2.59-2-2.95-4.46-2.44-7.67l2.64-3.57,2.92,3.33C168.63,35,167.46,37.5,164.67,39.58Z"/><path class="cls-1" d="M183.16,40.59c2.16,5,1.25,7.13-4.18,9.61-1.81-1.82-1.55-4-.72-6.07S180.44,40.21,183.16,40.59Z"/><path class="cls-1" d="M152.63,58.39c4.49,3,4.67,6.41.74,10.44C149.17,66.39,148.85,62.84,152.63,58.39Z"/><path class="cls-1" d="M199.73,71c-.24-5.43,2-7.46,7.47-7.05C208.3,68.88,205.68,71.46,199.73,71Z"/><path class="cls-1" d="M154.34,46.92c.42,4.34.42,4.34-1.06,6.12-5.5-2.76-6.49-4.88-4.32-9.32C152,44.11,152,44.11,154.34,46.92Z"/><path class="cls-1" d="M114.17,54.83c-5.12-1.86-6.08-3.71-4.85-8.94a5.83,5.83,0,0,1,1-.17c.62,0,1.23.1,1.69.14C115.92,49.17,116.49,51.55,114.17,54.83Z"/><path class="cls-1" d="M195,52.54,200.4,50c1,2.13.64,4,.55,5.59-1.44,2.58-3.71,3.46-6.37,4a11.6,11.6,0,0,1,.51-7.17Z"/><path class="cls-1" d="M108.14,70.81a6.49,6.49,0,0,1,6.09,1.07c.85,1.63,2.31,3.28,1.9,5.6C111,78.81,108.21,76.58,108.14,70.81Z"/><path class="cls-1" d="M106,71.62c-5,2.29-7.75,1.17-9.93-3.73a14.64,14.64,0,0,1,1.74-1.1,19.23,19.23,0,0,1,2.34-.74c.53.2,1.23.41,1.9.71s1.31.7,2,1.1Z"/><path class="cls-1" d="M170.92,39.7l3,3.24c.26,4.22.18,4.45-2.52,7.25C167.07,47.8,166.8,43.89,170.92,39.7Z"/><path class="cls-1" d="M92.85,242.25c-2.14-.92-4.59,1.38-6.34-1.22-.6-4.47-.08-5.23,4.08-5.73l.56-3.51,1.7.1Z"/><path class="cls-1" d="M243.27,231.82h1.83c.34,3.31.11,6.62.12,10.33-2.24-.64-4.6,1.28-6.62-1.39l-.18-2.73c.78-2.31,2.33-2.81,4.43-2.57C243,234.23,243.11,233.17,243.27,231.82Z"/><path class="cls-1" d="M277.8,231.86l1.65-.1c.21,1.17.42,2.32.64,3.57l2.82.24c2,2,1.31,4.21,1.33,6.52l-1.83.16c-.23-1.75-.44-3.4-.67-5.26l-1.69.62-.47,4.52H277.8Z"/><path class="cls-1" d="M39.05,237v3.14c-.75,1.87-2.11,2.43-4.1,2.13l-.68,2.87-1.58.11c-.69-3.12-.22-6.17-.3-9.69C34.56,236.73,36.89,234,39.05,237Z"/><path class="cls-1" d="M177.22,242.23V232l1.76-.36c.19,1.43.36,2.72.54,4l2.72-.19c2.24,1.81,1.46,4.13,1.54,6.51l-1.95.29c-.17-1.75-.33-3.31-.51-5.16l-1.8.5c-.12,1.49-.23,2.83-.37,4.42Z"/><path class="cls-1" d="M252.57,245.27l-1.81-.19v-9.22l4.68-.41c2.52.94,2.05,3,1.83,4.86-1.68,1.84-1.68,1.84-4.2,2.15-.08.41-.17.88-.25,1.34Z"/><path class="cls-1" d="M156.73,236.85a13.86,13.86,0,0,1,.2,1.4c0,.63-.06,1.25-.08,1.82-1.71,2.21-1.71,2.21-4.33,1.87l-.39,3.13-1.86.13v-9.36C155.47,235.93,155.56,235.94,156.73,236.85Z"/><path class="cls-1" d="M106.34,194l-1.7.68c-.33-.25-.68-.4-.68-.55,0-3.88,0-7.76,0-12l1.16-.72C106.79,184.2,106.94,185.69,106.34,194Z"/><path class="cls-1" d="M204.11,276.05V265l2.75-.29v11.1Z"/><path class="cls-1" d="M223.47,264.82h2.89v11l-2.42.21c-.83-1.92-.38-3.8-.46-5.62S223.47,266.94,223.47,264.82Z"/><path class="cls-1" d="M210.79,200.88l-1.44-1.61c1.55-2.23,4.85-2.81,4.73-6.52-.16-.54-.48-1.59-.87-2.85l2.3-1.05,1.15,4C215.63,197.65,215.33,198.07,210.79,200.88Z"/><path class="cls-1" d="M200.87,181.28c.15,4.53,1.31,8.53,0,12.89l-1.39.79c-.29-.44-.64-.71-.65-1-.06-2.12,0-4.24-.08-6.36-.05-1.61-.21-3.22-.35-5.26Z"/><path class="cls-1" d="M113.88,242.09l-1.6.16c-.84-2.11-.28-4.19-.4-6.52l5-.32c2.42,1.93,1.49,4.32,1.62,6.7l-1.87.13c-.22-1.74-.42-3.39-.65-5.22l-1.69.56C114.16,239.09,114,240.53,113.88,242.09Z"/><path class="cls-1" d="M115.65,200.81l-1.42-1.66,4.84-4.69c-.38-1.71-.67-3-1-4.57l2-1C122.5,194.45,120.81,198.2,115.65,200.81Z"/><path class="cls-1" d="M31.51,238.82c-1.5,3.67-1.5,3.67-5.68,3.16l-.41-1.5c1.39-.34,2.93,1,3.83-1.21l-3.57-2.56-.19-2.54c1.61-2.18,3.4-2.17,5.48.09H27.05Z"/><path class="cls-1" d="M223.71,242.07c-1.31-1.16-1.23-2.3-.43-3.84l3.28-.94-3.54-.35c.19-.42.27-.9.45-.94,1.28-.29,2.57-.48,3.62-.66,2.39,2,1.52,4.34,1.64,6.73Z"/><path class="cls-1" d="M295.46,242.12h-4.77c-1.47-.69-1.49-1.94-.92-3.54a8.83,8.83,0,0,1,1.5-.81,6.28,6.28,0,0,0,1.77-.57l-3.49-.23c1.35-2.34,3.18-1.19,4.54-1.52C296.19,237.56,295.4,239.79,295.46,242.12Z"/><path class="cls-1" d="M61.91,237.32l-4-.43c1.2-2.15,2.93-1.28,4.4-1.39,2.21,1.78,1.35,4.1,1.45,6.22-3.32.78-3.32.78-5.62-.27C57.6,238.26,57.65,238.2,61.91,237.32Z"/><path class="cls-1" d="M230.57,235.85l4.9-.38c2.29,1.77,1.44,4.12,1.56,6.49l-1.94.33-.47-5.19-1.82.46c-.15,1.61-.29,3.05-.44,4.59h-1.79Z"/><path class="cls-1" d="M170.35,235.5c-.44,1.5-.74,2.65-1.11,3.78-.66,2-1.37,3.95-2.08,6l-1.8-.08c.22-1.07.41-2,.61-3l-2.43-6.46,1.94-.23,1.65,3.74c.38-.87.64-1.39.83-1.94a16.14,16.14,0,0,0,.35-1.62Z"/><path class="cls-1" d="M264.07,235.68l1.71-.23,1.9,3.74c.51-1.35.92-2.45,1.33-3.55h1.89l-3.16,9.53h-2C267.35,241.62,264.94,238.94,264.07,235.68Z"/><path class="cls-1" d="M33.83,186.74l1.71-2.27c2.83,4.24,2.6,6.85-.94,11.25-1.43,0-3.08.65-4.35-.95,1.74-1.11,3.39-2.14,5-3.25.37-.25.57-.77,1-1.43Z"/><path class="cls-1" d="M85,239.14l-4.33.32c1,2.2,2.82.54,4.14,1-1.8,2.43-2.56,2.48-5.93.38v-3.4a3.38,3.38,0,0,1,4.39-1.88C84.67,236.05,85.33,237.17,85,239.14Z"/><path class="cls-1" d="M46.45,239.2l-4.08.23c1.05,2.12,2.79.78,4.27.87-1.82,2.62-2.66,2.69-6,.62-.06-.49-.2-1.09-.22-1.69a13.86,13.86,0,0,1,.1-1.62,3.53,3.53,0,0,1,4.47-2C46.15,235.89,46.4,236.57,46.45,239.2Z"/><path class="cls-1" d="M187.9,235.28l4,.84v4.31c-2.52,2.46-3.18,2.52-6.45.55C184.93,238.88,184.79,236.87,187.9,235.28Z"/><path class="cls-1" d="M133.39,237.59c2.81-2.73,3.4-2.79,6.86-.79l.18,3.26c-2.65,2.9-3.49,3-6.86.74Z"/><path class="cls-1" d="M197.19,237.56c2.73-2.7,3.34-2.76,6.75-.8a14.66,14.66,0,0,1,.22,1.68c0,.61-.06,1.23-.09,1.75-2.54,2.77-3.37,2.85-6.68.67-.06-.41-.16-.89-.19-1.38S197.19,238.25,197.19,237.56Z"/><path class="cls-1" d="M145.78,236.21,144,237.76v4.45l-2-.09c-.07-2.08.49-4.11-1.15-5.91,1.72-1.17.9-5,5.18-4.25l-2.19,2.54Z"/><path class="cls-1" d="M106.55,242.12h-2V232l1.72-.34C106.79,235.1,106.38,238.4,106.55,242.12Z"/><path class="cls-1" d="M193.69,231.75l1.92.16v10l-1.92.46A101.48,101.48,0,0,1,193.69,231.75Z"/><path class="cls-1" d="M65.5,231.89l1.73-.09a8.8,8.8,0,0,1,.27,1.51c0,2.85,0,5.69,0,8.73h-2Z"/><path class="cls-1" d="M160.1,237.13l3.33,2.82c-1.09,2.65-2.83,2.53-4.85,2.14l-.43-1.77,3.64.4-3.37-2.42c-.5-1.63.19-2.44,1.43-2.75a2.18,2.18,0,0,1,3,1.77Z"/><path class="cls-1" d="M262.38,240.69l-3.3-2.16c-.78-1.6-.18-2.56,1.22-3s2.58,0,3.07,1.83l-2.9-.34c1.11,1.44,3.35,1.33,3.23,3.55-1,1.92-2.66,2-4.69,1.35-.11-.54-.2-1-.32-1.63Z"/><path class="cls-1" d="M277.19,237.68l-3-.56c-1.26,1.11-1.33,2.15-.27,3.33h3.41c-1,.85-1.53,1.57-2.18,1.75a2.9,2.9,0,0,1-3.59-1.44V237C274.54,234.86,274.85,234.87,277.19,237.68Z"/><path class="cls-1" d="M171,240.79v-3.74c3-2.29,3.68-2.25,5.22.54l-1.48-.31c-.36-.06-.72-.09-1.05-.14-1.34,1-1.34,2-.36,3.32h3.23c-.78.76-1.22,1.53-1.84,1.71A3,3,0,0,1,171,240.79Z"/><path class="cls-1" d="M75.45,240.42c.5.21,1.17.47,1.82.75.06,0,0,.22.12.61-1.37,1-2.9.42-4.49.44-.69-2.27,1.56-3.13,1.83-4.78l-2.16-1c1.91-1.22,1.91-1.21,4.67-.62C77.9,237.88,75.35,238.62,75.45,240.42Z"/><path class="cls-1" d="M98.28,241.05v-4c3-2.16,3.23-2.15,5.38.28a7.53,7.53,0,0,1-1.36.11,11.14,11.14,0,0,1-1.24-.28c-1.54,1-1.26,2.11-.51,3.33h2.8C102.05,242.82,101.43,242.91,98.28,241.05Z"/><path class="cls-1" d="M52.9,237.65a11.5,11.5,0,0,0-1.26-.4,6.29,6.29,0,0,0-1.06-.07c-1.2,1.07-1.17,2.12-.06,3.4l3.44-.21c-1.17.94-1.69,1.64-2.36,1.83a3,3,0,0,1-3.51-1.32v-4C51.11,234.86,51.39,234.87,52.9,237.65Z"/><path class="cls-1" d="M123.73,240.88v-3.36c2.58-2.76,3.15-2.81,5.41-.23h-2.93c-1.07,1-1.07,2,.05,3.29l2.73-.16C127.3,242.86,126.7,242.92,123.73,240.88Z"/><path class="cls-1" d="M298.35,233.85l3.21,2.48c-.75.44-1.33.79-2,1.19v2.64l1.75,1c-.22.31-.37.73-.65.87a2,2,0,0,1-2.62-.6c-1-1.53.53-3.82-1.73-5.06Z"/><path class="cls-1" d="M177.23,52.48,178.6,55l-3,3.9L174.05,56C175.17,53.3,175.17,53.3,177.23,52.48Z"/><path class="cls-1" d="M136.94,63.47c-2.51-2.54-2.56-3-.62-6.25C139.49,59.15,139.58,60.06,136.94,63.47Z"/><path class="cls-1" d="M112.6,86.05l-3.08,1.72L106,85.52l3.4-2.23C110.61,84,112.06,84.09,112.6,86.05Z"/><path class="cls-1" d="M173.75,24.3c2.41,2.57,2.4,3-.11,6.13C171,28.07,171,26.81,173.75,24.3Z"/><path class="cls-1" d="M195.09,52.44l-4,1.7c-.53-3.51.3-4.6,3.93-5.25v3.65Z"/><path class="cls-1" d="M225.13,66.64c-.39.7-.79,1.41-1.13,2-3.06.36-3.06.36-4.78-1C221.15,64.91,222.35,64.66,225.13,66.64Z"/><path class="cls-1" d="M202.12,38.17a6.35,6.35,0,0,1-.32-1.29,19.35,19.35,0,0,1,.15-2c1.3-.5,2-2.2,3.81-1.69C206.43,36.61,206.06,37.15,202.12,38.17Z"/><path class="cls-1" d="M94.5,70.75l1.57,1.63c-.35.5-.48.87-.75,1.05a3.7,3.7,0,0,1-5.26-.66C91,70.61,91,70.61,94.5,70.75Z"/><path class="cls-1" d="M88.48,80.78c.81-2.38,2.5-1.85,3.61-2.65l3.31,2.45-2.75,1.76Z"/><path class="cls-1" d="M157.91,24.9,160.67,27l-1.14,3.67C156.39,29.91,156,28.32,157.91,24.9Z"/><path class="cls-1" d="M193.25,31.43c-1.76-2.58-1.63-3.31,1-5.75C196.72,28,196.44,29.51,193.25,31.43Z"/><path class="cls-1" d="M143.25,41.35,141,39.19c.07-1.23.13-2.42.2-3.76a3.13,3.13,0,0,1,3.26,2.09A2.75,2.75,0,0,1,143.25,41.35Z"/><path class="cls-1" d="M128.83,43.26l-2.48-2.17c-.28-2.48-.28-2.48.9-4.4l2.57,1.76Z"/><path class="cls-1" d="M207.93,77.61c-.42.85-.73,1.5-1,2.1a4.12,4.12,0,0,1-4.79.14C203.84,76.34,204.49,76,207.93,77.61Z"/><path class="cls-1" d="M204.66,61.19c-1.47,1.21-2.74,2.16-4.54,1.62.59-3.72.78-3.9,4.4-4.22C204.57,59.5,204.62,60.4,204.66,61.19Z"/><path class="cls-1" d="M132.46,45.18c2.09-.49,3.06.47,3.75,2.34l-.67,2.72a6.12,6.12,0,0,1-1.47-.49C132.34,48.51,132.23,48.14,132.46,45.18Z"/><path class="cls-1" d="M188.09,36,186.6,33.3c.67-1.15,1.31-2.27,2-3.43C191.45,32,191.27,33.6,188.09,36Z"/><path class="cls-1" d="M131.07,35.07,127.56,33l.23-4.8,3.28,2.51Z"/><path class="cls-1" d="M148,29.32,146.83,33l-2.62-2c-.12-1.37-.45-2.7.44-3.9C146.3,26.77,146.92,27.9,148,29.32Z"/><path class="cls-1" d="M104,50.43l.44,3.74c-3.23.53-4-.13-4.35-3.93Z"/><path class="cls-1" d="M94.71,91.56c-.85.91-1.42,1.5-2.1,2.22l-3.79-.22c-.65-2.21.84-2.67,2.2-3.65Z"/><path class="cls-1" d="M96.18,59.91c1.26,1.07,2.38,1.74,2.06,3.26-3.63,1-4.54.48-5-3Z"/><path class="cls-1" d="M126.66,60l-3.37-.16-1.73-2.8c.35-.37.55-.77.83-.85C124.86,55.59,126.13,56.62,126.66,60Z"/><path class="cls-1" d="M150.12,56.92,149,58.43c-2.27.06-3.38-2.56-2.43-5.46C148.84,53.14,149.56,54.74,150.12,56.92Z"/><path class="cls-1" d="M210.26,43.62l2.33-2.13,1.73.7c-.35,3.48-.64,3.77-4.06,4.07Z"/><path class="cls-1" d="M109.78,38.63c3.38-.43,4,.14,4.13,3.68-1.14,1-2.2.21-3-.43A3,3,0,0,1,109.78,38.63Z"/><path class="cls-1" d="M287.74,242.21l-1.73-.1c-.06-1.22-.13-2.31-.16-3.4s0-1.93,0-3l1.83-.19A16.31,16.31,0,0,1,287.74,242.21Z"/><path class="cls-1" d="M108.27,235.7l1.64-.2a16.49,16.49,0,0,1,.1,6.71l-1.74-.11Z"/><path class="cls-1" d="M56.06,242.18H54.5c-.84-2-.29-4.11-.39-6.37l2-.34Z"/><path class="cls-1" d="M120.27,235.69l1.63-.2a15.66,15.66,0,0,1,.12,6.71l-1.75-.09Z"/><path class="cls-1" d="M71.09,242.06l-1.61.17c-.76-2.14-.32-4.21-.34-6.52l2-.17Z"/><path class="cls-1" d="M94.6,198.71l-.89,2.73-3-4.18,1.14-1.43L93.4,197l1.84-1.08,1.24,1.29-2,1.63Z"/><path class="cls-1" d="M186,183.78l2.28.81-.79,1.51c-.2.15-.37.3-.39.28-1.34-1.24-3.37.17-4.78-.86.36-1.49,1.09-1.94,2.23-1.76l.36-.09a1,1,0,0,1,.73,0Z"/><path class="cls-1" d="M308.72,196.75l1.31.85,1.31-.93c1,.4,1.73.93.92,2.25l-3.7.31C307.37,198.45,307.47,197.62,308.72,196.75Z"/><path class="cls-1" d="M281.46,182.48l1.87,1.18,2.31-.82c-.06,1-.09,1.59-.17,2.89-1.61-1.75-3.67.5-5-1.69Z"/><path class="cls-1" d="M325.1,197c.12.54.28,1.2.49,2.09h-4.47l.2-2.09Z"/><path class="cls-1" d="M78,183.78l2.56.63-1.3,2-1.74-1.15-1.86.75L74,184.6l2.5-.86.37-.09a1.54,1.54,0,0,1,.74,0Z"/><path class="cls-1" d="M203.84,260.37H207c0,.9.08,1.67.13,2.65l-2.76.27C204.18,262.37,204.05,261.6,203.84,260.37Z"/><path class="cls-1" d="M226.78,263.13h-3.12l-.13-2.67,2.76-.25C226.44,261.13,226.57,261.91,226.78,263.13Z"/><path class="cls-1" d="M15.11,181.45,17.06,183c-2.16.73-3.76.91-5.93-.36l2.42-1.16.39-.1a1.87,1.87,0,0,1,.78,0Z"/><path class="cls-1" d="M313.84,245l.84-4.77h1.8C316.69,242.3,315.8,243.54,313.84,245Z"/><path class="cls-1" d="M270.91,181.86l1.57,1.83-1.4,1.62-1.94-1.43Z"/><path class="cls-1" d="M99.65,185.53,97.86,184l1.61-1.93,2.39,1.91Z"/><path class="cls-1" d="M174.07,187.19l-1.86-1.7,1.84-2,1.64,1.44Z"/><path class="cls-1" d="M88.13,185.63l-1.37,1.73-2.08-1.64,1.85-1.55Z"/><path class="cls-1" d="M194.73,182l1.67,1.32-1.81,2.35-1.22-1.87Z"/><path class="cls-1" d="M111.05,155.25l1.91,1.52a4.66,4.66,0,0,1-4.6-.06l2.69-1.46Z"/><path class="cls-1" d="M316.83,185.73V182.6l2.22,1.81-1.5,1.56Z"/><path class="cls-1" d="M110.13,232.64c.32,1.69-.15,2.28-1.74,2C107.9,233.18,108.09,232.38,110.13,232.64Z"/><path class="cls-1" d="M69.28,234.87l-.21-2,1.87-.41.44,1.94Z"/><path class="cls-1" d="M54.27,234.86l-.17-2,1.85-.42.42,1.95Z"/><path class="cls-1" d="M285.72,232.7l1.82-.19c.2.38.48.69.49,1,0,1.16-.67,1.39-1.85,1.09Z"/><path class="cls-1" d="M122.16,232.69l.1,1.79-1.66.22c-.23-.4-.43-.6-.45-.82C120,232.62,120.72,232.39,122.16,232.69Z"/><path class="cls-1" d="M184.56,183.76l-.72-1.42,1.43-.91,1.3,1c-.21.51-.39.93-.56,1.35l.08-.07a1,1,0,0,1-1.56,0Z"/><path class="cls-1" d="M13.55,181.5c-.41-.79-.74-1.57.63-2.19l1.4.75-.47,1.39-.13.1a1,1,0,0,1-1.44-.06Z"/><path class="cls-1" d="M76.53,183.74l-.45-1.09c.57-1,1.2-1.75,2.49-.37l-.57,1.5.09-.07a1,1,0,0,1-1.53,0Z"/><path class="cls-1" d="M115.51,104.28a3.33,3.33,0,0,1,3,2.24l0,0a3.28,3.28,0,0,1-3-2.25Z"/><path class="cls-1" d="M111.05,155.25l-1.42.07.45-1.52h.57l.4,1.45Z"/><path class="cls-1" d="M145.5,150.69l-.17,1.12-.42-.2.67-.85Z"/><path class="cls-1" d="M192.82,87.79l.84-.72.22.42-1.13.22Z"/><path class="cls-1" d="M82.59,119.94l-.76-1.49-.07.07.74,1.5Z"/><path class="cls-1" d="M82.5,120l.68.89-.4.2-.19-1.17Z"/><path class="cls-1" d="M174.83,70.54l.23-.54-.3.47Z"/><path class="cls-1" d="M114.08,102.7l-.16-.06c-.1-.16,0,0,.09.13Z"/><path class="cls-1" d="M114,102.77l.75.75.07-.06-.75-.76Z"/><path class="cls-1" d="M114.76,103.52l.75.76.07-.06-.75-.76Z"/><path class="cls-1" d="M242.21,192.1c3-3.3,3.67-3.46,6.07-1.73C247,192.79,244.77,191.81,242.21,192.1Z"/><path class="cls-1" d="M262,189.08l2.09,1.06c-.26.45-.37.84-.62,1-1.53,1.1-3.24.91-5.13.79C258.87,190.13,260.3,189.74,262,189.08Z"/><path class="cls-1" d="M330.68,188.17l5.19,2.31c-.94,2.32-2.39,2.61-4.63,1.87Z"/><path class="cls-1" d="M116.2,264.71c-1.64,2.15-1.64,2.15-4.29,1.82v-3.65C113.81,262.21,115.22,262.59,116.2,264.71Z"/><path class="cls-1" d="M151.71,268.24h-5C148.45,266.61,149.74,266.82,151.71,268.24Z"/><path class="cls-1" d="M124.71,272.66c.92-1.43,2.12-1.21,3.46-.78C126.87,274,126.87,274,124.71,272.66Z"/><path class="cls-1" d="M207.27,237.34H209l.08.58-1.75.32Z"/><path class="cls-1" d="M207.2,242.63h2l.06.63-2,.27Z"/><path class="cls-1" d="M113.21,192.06l-3-.41c.18-.75.3-1.29.58-2.44Z"/><path class="cls-1" d="M207.58,191.8h-2c.08-.73.15-1.35.27-2.47l2,1.81Z"/><path class="cls-1" d="M130,189.67l1.63,2.08-2.39.23v-2Z"/><path class="cls-1" d="M89.33,240.78l-1.44-1.28L89,237.1c.5.13,1,.11,1.17.34C91.28,238.76,91,239.83,89.33,240.78Z"/><path class="cls-1" d="M241.52,240.76l-1.4-1.28c.37-.83.72-1.59,1.15-2.53.56.3,1.14.42,1.36.76C243.44,239,243.17,240,241.52,240.76Z"/><path class="cls-1" d="M37.44,238.84l-1.21,1.94c-.52-.29-1.1-.43-1.28-.77-.67-1.24-.57-2.33,1.21-3Z"/><path class="cls-1" d="M254.34,236.74l1.3,2.2-1.22,1.77C252.46,239.07,252.46,239.07,254.34,236.74Z"/><path class="cls-1" d="M154,240.92c-2-2-2-2-.16-4l1.3,1.76C154.78,239.39,154.45,240,154,240.92Z"/><path class="cls-1" d="M226.44,240l-1.62.54-.21-.57,1.59-.63Z"/><path class="cls-1" d="M291.34,240l1.69-.47.16.68-1.7.37Z"/><path class="cls-1" d="M61.49,240.15l-1.69.48-.18-.6,1.67-.55Z"/><path class="cls-1" d="M82.85,237.52l-1.55.1,0-.39,1.54-.11Z"/><path class="cls-1" d="M44.45,237.54H43.11l0-.28,1.41-.14Z"/><path class="cls-1" d="M188.25,236.82c.77.47,1.51.7,1.87,1.21a2.09,2.09,0,0,1,0,1.68,1.49,1.49,0,0,1-2.14.78C186.81,240,186.83,239.07,188.25,236.82Z"/><path class="cls-1" d="M135.13,238.68c.73-1.51,1.72-2.19,2.93-1.07s.62,2.19-.53,3C136.11,240.81,135.41,240.16,135.13,238.68Z"/><path class="cls-1" d="M199.74,240.56c-.8-2.16-.61-3.16.57-3.41a1.63,1.63,0,0,1,2,1.17C202.75,239.53,202,240.19,199.74,240.56Z"/><path class="cls-1" d="M94.6,198.71l-.35-.22.27.3Z"/><path class="cls-1" d="M184.53,183.74l1.56,0C185.59,184.76,185.07,184.69,184.53,183.74Z"/><path class="cls-1" d="M76.56,183.75l1.53,0C77.61,184.81,77.09,184.5,76.56,183.75Z"/><path class="cls-1" d="M13.54,181.49l1.44.06C14.47,182.29,14,182.28,13.54,181.49Z"/></g></g></svg>